<svg width="322" height="250" viewBox="0 0 322 250" fill="none" xmlns="http://www.w3.org/2000/svg">
<g clip-path="url(#clip0_1_163)">
<path d="M42.8871 246.436H2.01757C1.27886 246.436 0.680023 247.035 0.680023 247.774V248.42C0.680023 249.159 1.27886 249.758 2.01757 249.758H42.8871C43.6258 249.758 44.2246 249.159 44.2246 248.42V247.774C44.2246 247.035 43.6258 246.436 42.8871 246.436Z" fill="#ADBEC4"/>
<path d="M314.261 246.436H273.391C272.652 246.436 272.054 247.035 272.054 247.774V248.42C272.054 249.159 272.652 249.758 273.391 249.758H314.261C314.999 249.758 315.598 249.159 315.598 248.42V247.774C315.598 247.035 314.999 246.436 314.261 246.436Z" fill="#ADBEC4"/>
<path d="M99.8815 246.436H59.012C58.2733 246.436 57.6744 247.035 57.6744 247.774V248.42C57.6744 249.159 58.2733 249.758 59.012 249.758H99.8815C100.62 249.758 101.219 249.159 101.219 248.42V247.774C101.219 247.035 100.62 246.436 99.8815 246.436Z" fill="#ADBEC4"/>
<path d="M177.088 246.436H110.953C110.215 246.436 109.616 247.035 109.616 247.774V248.42C109.616 249.159 110.215 249.758 110.953 249.758H177.088C177.826 249.758 178.425 249.159 178.425 248.42V247.774C178.425 247.035 177.826 246.436 177.088 246.436Z" fill="#ADBEC4"/>
<path d="M251.47 246.436H187.565C186.827 246.436 186.228 247.035 186.228 247.774V248.42C186.228 249.159 186.827 249.758 187.565 249.758H251.47C252.209 249.758 252.808 249.159 252.808 248.42V247.774C252.808 247.035 252.209 246.436 251.47 246.436Z" fill="#ADBEC4"/>
<path d="M20.3717 195.832C20.3717 195.832 31.5179 225.555 32.1867 234.918C32.1867 234.918 35.0104 237.148 39.7661 235.216C39.7661 235.216 39.9148 206.755 35.2333 197.987C30.5519 189.219 20.3717 195.832 20.3717 195.832Z" fill="#FF8B66"/>
<path d="M17.9195 248.071H41.4009C42.0047 245.774 41.8216 243.341 40.8808 241.16C40.8808 241.16 41.9211 237.148 41.5496 235.81C41.178 234.472 36.348 232.838 35.0104 234.175C34.6703 234.571 34.4156 235.032 34.2621 235.531C34.1087 236.03 34.0599 236.555 34.1187 237.073C33.45 233.358 31.7409 233.061 30.1061 234.547C28.4713 236.033 30.4776 235.29 30.1804 237.742C30.1061 237.891 30.1061 238.039 30.0318 238.188C29.7026 238.888 29.1549 239.461 28.4713 239.823L27.8768 240.194L26.6136 240.64C25.8901 240.874 25.1421 241.024 24.3844 241.086C21.1891 241.383 19.8516 241.606 18.3654 243.241C16.8792 244.876 17.8452 246.213 17.8452 246.213L17.9195 248.071Z" fill="#CFD8DC"/>
<path d="M30.0318 238.188C29.8791 238.553 29.6512 238.882 29.363 239.154C29.9083 238.903 30.5193 238.833 31.1072 238.954C31.6951 239.074 32.2294 239.378 32.6326 239.823L33.227 239.08C32.9156 238.544 32.4074 238.151 31.8106 237.984C31.2138 237.818 30.5756 237.891 30.0318 238.188Z" fill="#ADBEC4"/>
<path d="M30.4776 241.532L31.295 241.012C31.188 240.548 30.9483 240.125 30.6053 239.795C30.2622 239.466 29.8306 239.243 29.363 239.154C29.1131 239.434 28.81 239.661 28.4713 239.823C28.9248 239.91 29.3479 240.113 29.6995 240.413C30.0511 240.712 30.3192 241.098 30.4776 241.532Z" fill="#ADBEC4"/>
<path d="M28.2484 242.423L29.0658 241.978C29.021 241.608 28.8901 241.254 28.6836 240.944C28.4771 240.635 28.2008 240.378 27.8768 240.194L26.6136 240.64C27.004 240.793 27.3543 241.033 27.6377 241.342C27.921 241.651 28.1299 242.021 28.2484 242.423Z" fill="#ADBEC4"/>
<path d="M68.3748 242.423C69.0892 241.893 69.6736 241.207 70.0839 240.417C70.3446 238.519 70.3446 236.594 70.0839 234.695C69.638 231.797 70.9013 229.419 75.0625 228.528C79.2238 227.636 81.4531 229.568 80.487 237.668C81.0815 241.012 81.2301 244.801 79.8183 248.071H67.4831C67.4831 248.071 65.5511 243.835 68.3748 242.423Z" fill="#CFD8DC"/>
<path d="M57.5258 198.953C57.7777 204.652 59.328 210.218 62.0586 215.227C66.6657 223.623 72.3875 235.141 72.3875 235.141C72.3875 235.141 76.1772 238.857 78.6294 232.763C78.6294 232.763 76.9203 211.288 72.9819 203.486C69.0436 195.684 57.5258 198.953 57.5258 198.953Z" fill="#FF8B66"/>
<path d="M77.7377 235.959C77.7377 235.959 78.8523 233.581 77.812 232.615C76.7716 231.649 75.657 233.432 73.8736 233.061C72.0902 232.689 71.7187 231.426 71.2728 233.061C70.827 234.695 71.4215 240.046 77.7377 235.959Z" fill="#CFD8DC"/>
<path d="M71.1985 235.81C71.1985 235.81 75.8799 237.519 78.2578 235.81L77.6633 237.891C77.6633 237.891 72.6104 238.411 71.8673 237.148L71.1985 235.81Z" fill="#ADBEC4"/>
<path d="M71.2728 238.336C71.2728 238.336 75.5084 237.742 77.589 238.782V239.823C77.589 239.823 72.0159 238.485 70.2325 239.823L71.2728 238.336Z" fill="#ADBEC4"/>
<path d="M77.8119 241.903C77.4715 241.268 76.9691 240.734 76.3558 240.356C75.7424 239.977 75.0399 239.768 74.3195 239.748C72.7795 239.654 71.2549 240.101 70.0096 241.012C71.2889 240.538 72.6617 240.371 74.0172 240.526C75.3726 240.681 76.6726 241.153 77.8119 241.903Z" fill="#ADBEC4"/>
<path d="M76.623 196.798C76.2327 197.636 75.7597 198.432 75.2112 199.176L74.8396 199.622C72.2388 202.817 66.5914 207.053 56.2626 202.891L55.6681 201.331L55.4452 200.811C54.6294 198.819 54.0072 196.754 53.5875 194.643C50.9124 179.633 49.8721 168.784 48.4602 162.616C44.5219 172.202 35.6049 190.779 35.2333 191.522C34.8618 192.265 36.7195 198.953 36.7195 198.953C29.2887 201.331 18.5883 198.284 18.5883 198.284C18.5883 198.284 15.3931 188.847 14.8729 182.085C14.5014 176.958 27.5053 148.052 33.5986 134.825L34.0444 133.785L36.7195 128.137L47.1227 131.704L72.3875 143.073C72.3875 143.073 72.8333 143.594 73.2048 148.795C73.2222 148.92 73.2471 149.044 73.2792 149.167C73.5021 152.288 73.725 156.969 73.8736 163.88V164.325C73.8736 165.812 73.8736 167.446 73.9479 169.23V183.943C73.9479 185.578 73.8736 187.287 73.8736 189.07C73.8736 190.854 75.1369 193.752 75.9543 195.461L76.1772 195.906C76.2867 196.222 76.4365 196.521 76.623 196.798Z" fill="#0C476B"/>
<path d="M75.2112 199.176L74.8396 199.622C73.6507 197.69 71.8673 194.346 71.4958 192.042C71.1242 189.739 70.6041 175.843 71.4958 162.245C72.3875 148.646 69.4151 136.163 69.4151 136.014L69.9353 135.865C69.9353 136.014 72.9076 149.018 72.0159 162.319C71.1242 175.62 71.4215 188.699 72.0159 191.968C72.3875 194.049 74.0965 197.17 75.2112 199.176Z" fill="#0E3944"/>
<path d="M71.2728 147.383C68.9846 146.615 66.8898 145.36 65.1325 143.706C63.3752 142.051 61.9969 140.035 61.0926 137.797L61.6871 137.575C61.6871 137.649 63.6934 144.039 71.4957 146.863L71.2728 147.383Z" fill="#0E3944"/>
<path d="M41.4752 132.596C41.0941 132.73 40.6887 132.781 40.2863 132.744C38.7258 132.819 35.9021 133.042 33.5986 134.825L34.0444 133.785C35.9649 132.759 38.1089 132.223 40.2863 132.224L41.178 132.076L41.4752 132.596Z" fill="#0E3944"/>
<path d="M48.2373 162.765C42.3669 151.024 49.9464 135.271 50.0207 135.122L50.5408 135.42C50.4665 135.568 42.9614 151.024 48.6831 162.468L48.2373 162.765Z" fill="#0E3944"/>
<path d="M47.0483 151.322C46.7447 151.324 46.4429 151.274 46.1566 151.173L46.3053 150.653C46.6531 150.755 47.0189 150.782 47.378 150.731C47.737 150.68 48.0807 150.552 48.3859 150.356C49.2776 149.835 49.7978 148.721 50.0207 147.086C50.5408 142.107 54.3306 136.014 54.5535 135.791L54.9993 136.088C54.925 136.088 51.1353 142.33 50.5408 147.16C50.3179 148.944 49.7234 150.207 48.6831 150.876C48.1987 151.193 47.6266 151.349 47.0483 151.322Z" fill="#0E3944"/>
<path d="M18.8112 22.3225C18.8112 22.3225 19.7029 20.1675 23.5669 20.1675C27.431 20.1675 27.7282 21.8023 27.7282 21.8023C29.5116 27.0782 31.4436 47.0671 32.1124 47.8102L54.7764 65.1983C42.7385 65.4212 42.2926 85.4102 42.2926 85.4102C41.8468 80.5058 25.1274 68.245 20.8175 60.2197C16.5077 52.1944 14.9472 34.4347 18.8112 22.3225Z" fill="#F2A668"/>
<path d="M90.8902 93.7327C89.1068 113.87 81.8246 133.413 79.2981 141.513C78.778 143.222 78.4064 144.262 78.4064 144.262C78.4064 144.262 38.8745 139.135 34.193 128.435L34.416 127.617C35.5306 122.713 41.4009 103.021 42.0697 86.9706C42.8128 69.0623 48.8318 62.6718 52.4729 63.4892C52.4729 63.4892 60.6468 69.954 65.8483 69.954C71.0499 69.954 83.608 64.2323 83.608 64.2323C83.608 64.2323 93.1195 69.211 90.8902 93.7327Z" fill="#FFB878"/>
<path d="M65.9227 62.5975C67.2359 62.5975 68.3005 61.5329 68.3005 60.2197C68.3005 58.9064 67.2359 57.8418 65.9227 57.8418C64.6094 57.8418 63.5448 58.9064 63.5448 60.2197C63.5448 61.5329 64.6094 62.5975 65.9227 62.5975Z" fill="#F24052"/>
<path d="M114.817 23.7343C114.817 23.7343 113.926 21.5794 109.987 21.5794C106.049 21.5794 105.9 23.2885 105.9 23.2885C104.117 28.4901 102.185 48.479 101.516 49.2221C100.848 49.9651 78.8523 66.6102 78.8523 66.6102C78.3321 80.5801 91.3361 86.822 91.3361 86.822C91.7076 81.9177 108.501 69.6568 112.737 61.6315C116.972 53.6062 118.681 35.9209 114.817 23.7343Z" fill="#F2A668"/>
<path d="M60.944 69.6568C60.944 69.6568 58.789 70.5485 58.3432 71.4402C57.8973 72.3319 59.5321 76.2703 62.7274 76.5675C65.9226 76.8647 72.0159 73.2236 71.7187 71.9604C71.4214 70.6971 66.9629 69.2853 60.944 69.6568Z" fill="#F2A668"/>
<path d="M60.5724 65.1983C60.5724 65.1983 61.8357 70.1027 59.978 72.0347C59.978 72.0347 62.9503 76.8647 69.638 71.9604C69.638 71.9604 68.3748 68.7651 69.638 66.6845L60.5724 65.1983Z" fill="#EF6E4B"/>
<path d="M79.5954 51.8228C79.5876 51.2556 79.3834 50.7086 79.0176 50.275C78.6517 49.8414 78.1469 49.5481 77.589 49.445C78.052 48.9953 78.319 48.3812 78.3321 47.7359C78.3321 47.1052 78.0816 46.5004 77.6356 46.0545C77.1897 45.6086 76.5849 45.358 75.9542 45.358C76.2127 44.961 76.3424 44.4939 76.3258 44.0205C76.3357 43.702 76.2816 43.3848 76.1666 43.0877C76.0515 42.7905 75.878 42.5196 75.6562 42.2908C75.4344 42.0621 75.1688 41.8803 74.8754 41.7562C74.5819 41.632 74.2665 41.5682 73.9479 41.5683C73.6732 41.5644 73.4005 41.6149 73.1454 41.7169C72.8903 41.8189 72.658 41.9705 72.4618 42.1628C72.4618 41.5124 72.2034 40.8887 71.7435 40.4288C71.2837 39.969 70.6599 39.7106 70.0096 39.7106C69.6096 39.7186 69.2177 39.8244 68.868 40.0187C68.5183 40.213 68.2214 40.4899 68.0033 40.8252C67.8445 40.3423 67.5351 39.923 67.1205 39.6287C66.706 39.3345 66.208 39.1809 65.6997 39.1905C65.2787 39.1867 64.8642 39.2948 64.4987 39.5037C64.1331 39.7125 63.8296 40.0148 63.6191 40.3794C63.1724 39.967 62.5919 39.7296 61.9843 39.7106C61.3786 39.7094 60.7952 39.9394 60.3533 40.3537C59.9114 40.768 59.6443 41.3353 59.6064 41.9399C59.2025 41.6971 58.7402 41.5687 58.2689 41.5683C57.9503 41.5682 57.6349 41.632 57.3414 41.7562C57.048 41.8803 56.7825 42.0621 56.5607 42.2908C56.3389 42.5196 56.1653 42.7905 56.0503 43.0877C55.9352 43.3848 55.8811 43.702 55.891 44.0205C55.8791 44.1972 55.9044 44.3744 55.9653 44.5406H55.891C55.2407 44.5406 54.617 44.799 54.1571 45.2589C53.6972 45.7187 53.4389 46.3425 53.4389 46.9928C53.4703 47.5977 53.706 48.1741 54.1076 48.6276C53.5635 48.7457 53.0757 49.0455 52.7246 49.4777C52.3734 49.9098 52.1798 50.4486 52.1756 51.0055C52.1817 51.5 52.3328 51.9819 52.6102 52.3914C52.8876 52.8009 53.2791 53.1199 53.7361 53.309C53.4245 53.5228 53.1724 53.8123 53.0035 54.1502C52.8345 54.4882 52.7542 54.8635 52.7701 55.241C52.7655 55.8234 52.9748 56.3872 53.3583 56.8255C53.7419 57.2638 54.2729 57.5461 54.8507 57.6189C55.186 58.8778 55.9816 59.965 57.08 60.6655C58.1203 61.6315 67.0373 62.6719 71.3471 62.3003C71.6851 62.6299 72.1111 62.855 72.5738 62.9484C73.0366 63.0418 73.5164 62.9997 73.9558 62.8271C74.3952 62.6545 74.7755 62.3587 75.0509 61.9753C75.3263 61.5918 75.4852 61.137 75.5084 60.6655C76.0997 60.6099 76.6487 60.335 77.0475 59.8949C77.4463 59.4549 77.666 58.8815 77.6633 58.2877C77.6633 58.0647 77.589 57.8418 77.589 57.6932C78.0069 57.4878 78.36 57.1709 78.6091 56.7775C78.8583 56.3841 78.9938 55.9295 79.0009 55.4639C79.0254 54.8975 78.8403 54.3419 78.4807 53.9035C78.8266 53.6785 79.11 53.3698 79.3048 53.0061C79.4997 52.6424 79.5996 52.2354 79.5954 51.8228Z" fill="#F24052"/>
<path d="M73.725 56.3557C73.725 56.3557 76.2515 53.8292 76.623 56.8015C76.9946 59.7738 73.8736 61.5572 73.2792 60.5169C72.6847 59.4766 73.725 56.3557 73.725 56.3557Z" fill="#FF8B66"/>
<path d="M56.1139 56.5043C56.1139 56.5043 53.5875 54.0521 53.2159 56.9501C52.8444 59.8481 55.9653 61.7801 56.5598 60.6655C57.1543 59.5509 56.1139 56.5043 56.1139 56.5043Z" fill="#FF8B66"/>
<path d="M65.1795 68.6908C70.7527 68.6908 73.9479 65.0497 73.9479 54.0521C73.9479 48.4047 71.0499 44.9865 64.808 44.9865C58.5661 44.9865 55.891 48.4047 55.891 54.0521C55.891 65.8671 59.3835 68.6908 65.1795 68.6908Z" fill="#FF8B66"/>
<path d="M57.7487 57.9904C57.6001 58.5849 58.1203 59.1051 58.8634 59.2537C59.6064 59.4023 60.2009 59.0307 60.2752 58.4363C60.2853 58.2801 60.2644 58.1234 60.2138 57.9753C60.1632 57.8272 60.0838 57.6905 59.9803 57.5732C59.8767 57.4558 59.751 57.36 59.6103 57.2914C59.4697 57.2227 59.3168 57.1825 59.1606 57.173C58.8666 57.1204 58.5635 57.1736 58.305 57.3233C58.0466 57.4729 57.8495 57.7093 57.7487 57.9904Z" fill="#DB614D"/>
<path d="M69.2665 58.2877C69.2839 58.442 69.3333 58.5911 69.4117 58.7252C69.49 58.8594 69.5956 58.9757 69.7215 59.0666C69.8475 59.1576 69.991 59.2212 70.143 59.2534C70.295 59.2856 70.452 59.2857 70.604 59.2537C71.3471 59.1794 71.8673 58.7335 71.8673 58.1391C71.796 57.8303 71.6113 57.5596 71.3498 57.3807C71.0882 57.2018 70.769 57.1276 70.4554 57.173C69.7867 57.2474 69.1922 57.7675 69.2665 58.2877Z" fill="#DB614D"/>
<path d="M60.2009 52.1201H60.4238C61.0897 51.7096 61.8806 51.5514 62.6531 51.6742C62.8017 51.7486 62.9503 51.5999 62.9503 51.4513C62.9503 51.3027 62.9503 51.1541 62.7274 51.1541C61.8021 50.9968 60.8512 51.1817 60.0523 51.6742C59.978 51.7486 59.9037 51.9715 60.0523 52.0458C60.0668 52.0716 60.0888 52.0924 60.1152 52.1056C60.1417 52.1189 60.1716 52.1239 60.2009 52.1201Z" fill="#F24052"/>
<path d="M70.9013 52.1201H71.1242C71.1985 51.9715 71.1985 51.8228 71.0499 51.7485C70.2738 51.1976 69.3189 50.9589 68.3748 51.0798C68.3035 51.1106 68.2436 51.163 68.2036 51.2297C68.1636 51.2963 68.1455 51.3738 68.1519 51.4513C68.1519 51.5999 68.3005 51.6742 68.4491 51.6742C69.2316 51.5513 70.0311 51.7378 70.6784 52.1944L70.9013 52.1201Z" fill="#F24052"/>
<path d="M60.7954 55.241C60.7954 55.9841 61.0926 56.5043 61.4641 56.5043C61.8357 56.5043 62.2072 55.9841 62.2072 55.241C62.2072 54.4979 61.8357 54.0521 61.4641 54.0521C61.0926 54.0521 60.7954 54.5723 60.7954 55.241Z" fill="#1A4850"/>
<path d="M68.2262 55.241C68.2262 55.9841 68.5977 56.5043 68.9693 56.5043C69.3408 56.5043 69.638 55.9841 69.638 55.241C69.638 54.4979 69.3408 54.0521 68.9693 54.0521C68.5977 54.0521 68.2262 54.5723 68.2262 55.241Z" fill="#1A4850"/>
<path d="M71.4214 47.6616L59.012 46.7699C59.012 46.7699 55.891 50.0394 56.114 58.0647C56.114 58.0647 51.061 43.5746 65.6997 43.5746C80.3384 43.5746 73.725 57.6932 73.725 57.6932C73.725 57.6932 74.1709 50.3367 71.4214 47.6616Z" fill="#F24052"/>
<path d="M64.808 59.0307L65.2539 58.5849L64.1392 57.4703C65.1795 55.9841 65.1795 52.4916 65.1795 52.2687H64.5851C64.5851 52.343 64.5851 56.1327 63.5448 57.3217L63.3218 57.5446L64.808 59.0307Z" fill="#DB614D"/>
<path d="M68.5234 60.8141C68.5234 60.8141 63.0246 61.1114 60.2752 60.3683C60.1976 60.9009 60.2391 61.4442 60.3966 61.9589C60.5541 62.4736 60.8238 62.9469 61.1862 63.3449C61.5487 63.7429 61.9948 64.0555 62.4926 64.2604C62.9904 64.4652 63.5274 64.5571 64.0649 64.5296C68.5234 64.7525 68.5234 60.8141 68.5234 60.8141Z" fill="#1A4850"/>
<path d="M23.9385 19.6474C23.9385 19.6474 19.7772 19.8703 19.8515 21.2079C19.9258 22.5454 19.8515 24.1059 23.344 23.9573C26.8365 23.8087 26.8365 22.3968 26.8365 21.0592C26.8365 19.7217 25.1274 19.5731 23.9385 19.6474Z" fill="#FFB878"/>
<path d="M111.102 20.3905C111.102 20.3905 106.941 20.3905 106.866 21.728C106.792 23.0656 106.718 24.626 110.21 24.626C113.703 24.626 113.777 23.2885 113.926 22.0253C114.074 20.762 112.217 20.3905 111.102 20.3905Z" fill="#FFB878"/>
<path d="M17.3994 11.3249C18.04 12.3901 18.587 13.5089 19.0342 14.6687C19.4057 16.898 19.6286 18.0869 20.446 19.1272C21.2634 20.1676 20.8175 21.951 20.8175 21.951C20.8175 21.951 23.7899 23.4371 26.3164 21.5794C26.2013 20.8159 26.2013 20.0394 26.3164 19.2759C26.8365 18.3098 28.5456 17.7154 29.0658 15.7091C29.6232 14.1695 30.399 12.718 31.3693 11.3992C31.3693 11.3992 30.8492 10.3589 29.9575 10.9533C29.0658 11.5478 28.5456 13.2569 28.0254 13.4055H27.7282C27.549 13.4463 27.3631 13.4474 27.1834 13.4089C27.0038 13.3704 26.8347 13.2932 26.6879 13.1826C25.8705 12.2166 25.6476 9.46717 25.7219 8.20393C25.7962 6.94069 25.6476 4.11698 24.6073 4.48852C23.567 4.86006 24.533 5.90038 23.7156 9.6901H23.344C23.2697 9.91302 22.5266 7.31223 22.378 4.93437C22.2294 2.55651 21.1148 3.81974 20.8919 4.41421C20.6689 5.00868 21.0405 6.56915 21.1148 7.75808C21.1165 8.47889 21.1662 9.19879 21.2634 9.91302L20.8175 10.2103C19.1085 7.31223 19.7029 6.1233 18.7369 6.04899C17.7709 5.97469 18.0681 8.50117 18.5883 9.39286C18.8658 10.0677 19.0894 10.7634 19.2571 11.4735C17.548 9.46717 17.6966 8.50117 16.9535 8.57548C16.2104 8.64978 16.8049 10.6561 17.3994 11.3249Z" fill="#FF8B66"/>
<path d="M24.8302 15.932C25.3503 14.2972 27.431 13.5541 27.7282 13.4798C27.549 13.5206 27.3631 13.5217 27.1834 13.4832C27.0038 13.4447 26.8347 13.3675 26.6879 13.2569C26.1399 13.4564 25.6671 13.8206 25.3345 14.2996C25.0019 14.7786 24.8257 15.3488 24.8302 15.932Z" fill="#EF6E4B"/>
<path d="M116.304 11.9193C115.669 12.9508 115.146 14.0468 114.743 15.1889C114.297 17.4181 114.074 18.6814 113.257 19.6474C112.44 20.6134 112.96 22.4711 112.96 22.4711C112.96 22.4711 109.913 24.0316 107.387 22.0996C107.387 22.0996 107.684 20.3162 107.387 19.796C107.089 19.2759 105.232 18.3098 104.637 16.2292C104.092 14.6985 103.342 13.2487 102.408 11.9193C102.447 11.786 102.52 11.6649 102.619 11.5674C102.717 11.4698 102.84 11.3991 102.974 11.3619C103.107 11.3248 103.249 11.3223 103.384 11.3548C103.519 11.3873 103.643 11.4538 103.746 11.5478C104.637 12.2166 105.232 13.777 105.678 14H106.049C106.398 14.031 106.744 13.9243 107.015 13.7027H107.089C107.907 12.7367 108.055 9.91302 108.055 8.72408C108.055 7.53515 108.055 4.56282 109.096 4.93437C110.136 5.30591 109.17 6.34622 109.987 10.1359H110.433C110.508 10.4332 111.251 7.83239 111.399 5.38021C111.548 2.92804 112.588 4.3399 112.885 4.86006C113.183 5.38022 112.737 7.015 112.663 8.27824C112.588 9.54148 112.514 9.91301 112.514 10.3589L112.96 10.6561C114.595 7.75808 114.074 6.56915 115.04 6.49484C116.006 6.42053 115.635 8.8727 115.115 9.83871C114.821 10.4754 114.621 11.1511 114.52 11.845C116.229 9.91301 116.006 8.8727 116.824 9.02132C117.641 9.16993 116.898 11.2506 116.304 11.9193Z" fill="#FF8B66"/>
<path d="M108.947 16.4521C108.353 14.8917 106.272 14.1486 106.049 14.0743C106.398 14.1053 106.744 13.9986 107.015 13.777C107.565 13.9822 108.043 14.3458 108.386 14.8219C108.73 15.298 108.925 15.8652 108.947 16.4521Z" fill="#EF6E4B"/>
<path d="M79.2981 141.513C78.778 143.222 78.4064 144.262 78.4064 144.262C78.4064 144.262 38.8745 139.135 34.193 128.435L34.416 127.617C36.8681 131.778 67.1859 141.884 79.2981 141.513Z" fill="#F2A668"/>
<path d="M223.828 248.071H243.073C244.411 240.417 242.256 232.763 242.256 232.763L233.488 231.203C232.67 236.033 231.704 237.965 230.367 238.931C229.401 239.674 228.212 239.897 226.8 240.417C226.128 240.619 225.511 240.971 224.996 241.448C224.48 241.924 224.081 242.512 223.828 243.167C222.936 245.396 223.828 248.071 223.828 248.071Z" fill="#0E3944"/>
<path d="M223.828 243.167C228.583 243.761 238.987 244.727 238.318 242.052C237.649 239.377 233.413 239.08 230.367 238.931C229.401 239.674 228.212 239.897 226.8 240.417C226.128 240.619 225.511 240.971 224.996 241.448C224.48 241.924 224.081 242.512 223.828 243.167Z" fill="#205260"/>
<path d="M288.253 248.071H307.499C307.897 246.875 308.024 245.606 307.87 244.355C307.776 243.449 307.415 242.591 306.833 241.89C306.251 241.189 305.474 240.677 304.601 240.417C302.892 239.823 301.628 239.6 300.588 238.634C299.548 237.668 298.582 235.587 297.913 231.203L289.07 232.763C289.07 232.763 286.915 240.417 288.253 248.071Z" fill="#0E3944"/>
<path d="M307.87 244.355C307.776 243.449 307.415 242.591 306.833 241.89C306.251 241.189 305.474 240.677 304.601 240.417C302.892 239.823 301.628 239.6 300.588 238.634C298.136 239.377 294.718 240.714 293.677 242.869C292.637 245.024 303.486 245.247 307.87 244.355Z" fill="#205260"/>
<path d="M299.25 232.54C299.25 232.54 297.764 237.296 288.179 234.027C288.179 234.027 281.119 180.525 280.005 179.336C278.89 178.147 267.595 143.296 267.595 143.296H264.028C264.028 143.296 252.733 178.221 251.693 179.336C250.653 180.45 243.445 234.027 243.445 234.027C233.859 237.296 232.373 232.54 232.373 232.54L236.98 174.877L246.64 115.431L265.812 117.586L285.058 115.431L287.584 130.961V131.556L294.569 174.877L299.25 232.54Z" fill="#8B383E"/>
<path d="M287.658 131.556C285.71 131.048 283.91 130.081 282.411 128.737C280.912 127.393 279.755 125.709 279.039 123.828L279.559 123.679C280.234 125.436 281.312 127.009 282.706 128.274C284.099 129.539 285.77 130.459 287.584 130.961L287.658 131.556Z" fill="#662C33"/>
<path d="M267.149 138.02C266.895 138.27 266.593 138.465 266.26 138.592C265.928 138.72 265.573 138.778 265.217 138.763C265.217 140.25 265.217 141.736 265.143 143.296H264.548C264.745 139.057 264.621 134.81 264.177 130.59H264.697C264.697 130.664 265.143 134.008 265.217 138.318C265.509 138.318 265.798 138.258 266.066 138.143C266.334 138.028 266.576 137.86 266.778 137.649C268.561 135.717 267.521 130.144 267.521 130.069H268.041C268.115 130.144 269.156 135.865 267.149 138.02Z" fill="#662C33"/>
<path d="M318.942 10.879C317.833 11.362 316.764 11.9335 315.747 12.5881C314.038 14.0743 313.146 14.8917 311.883 15.2632C310.62 15.6348 310.545 17.864 310.545 17.864C310.545 17.864 305.864 19.8703 304.972 16.8237C304.972 16.8237 306.978 12.4395 307.127 11.845C307.276 11.2506 306.31 9.31856 307.053 7.31224C307.538 5.77336 307.789 4.17009 307.796 2.55651C307.796 2.55651 308.836 1.96205 309.208 3.00236C309.579 4.04268 308.985 5.75177 309.282 6.12331L309.431 6.42054H309.505C309.616 6.54539 309.754 6.64361 309.908 6.70793C310.063 6.77224 310.23 6.80101 310.397 6.79208H310.471C311.734 6.49485 313.518 4.41422 314.261 3.37391C315.004 2.33359 316.787 0.10434 317.382 1.07035C317.976 2.03635 316.639 2.25928 315.004 5.75177L315.227 6.049C315.152 6.27193 317.307 4.71145 318.868 2.85374C320.428 0.99604 320.503 2.70513 320.354 3.29959C320.205 3.89406 318.942 5.00868 318.199 5.90038L316.787 7.46086L316.936 7.98101C320.057 6.64347 320.354 5.38022 321.097 5.90038C321.84 6.42054 320.205 8.20394 319.239 8.64979C318.58 8.97023 317.977 9.39701 317.456 9.91303C320.057 9.31856 320.503 8.42686 321.023 9.02133C321.543 9.6158 319.834 10.7304 318.942 10.879Z" fill="#FF8B66"/>
<path d="M310.322 10.0616C310.842 8.42686 309.654 6.64346 309.505 6.42053C309.616 6.54538 309.754 6.6436 309.908 6.70792C310.063 6.77223 310.23 6.801 310.397 6.79207C310.725 7.2774 310.894 7.85287 310.881 8.43871C310.868 9.02455 310.672 9.59173 310.322 10.0616Z" fill="#EF6E4B"/>
<path d="M174.561 38.3731C175.784 38.3743 177.004 38.4988 178.202 38.7446C180.283 39.562 181.472 40.0078 182.735 39.8592C183.998 39.7106 184.89 41.7912 184.89 41.7912C184.89 41.7912 190.017 41.9399 189.72 38.7446C189.72 38.7446 186.228 35.4007 185.93 34.9549C185.633 34.509 185.782 32.2798 184.296 30.7193C183.279 29.4594 182.453 28.0575 181.843 26.5581C181.843 26.5581 180.655 26.4094 180.729 27.4498C180.803 28.4901 181.918 29.9019 181.843 30.4221C181.769 30.9422 181.769 30.645 181.695 30.7193C181.649 30.8867 181.565 31.041 181.448 31.17C181.332 31.299 181.188 31.3992 181.026 31.4624H180.952C179.689 31.6853 177.236 30.3478 176.196 29.679C175.156 29.0102 172.629 27.5984 172.406 28.713C172.183 29.8276 173.521 29.4561 176.419 32.1312L176.196 32.5027C176.419 32.7256 173.818 31.9826 171.663 30.8679C169.508 29.7533 170.103 31.3881 170.474 31.8339C170.846 32.2798 172.406 32.8743 173.447 33.4687L175.379 34.4347V34.9549C172.035 34.8806 171.366 33.766 170.772 34.5833C170.177 35.4007 172.481 36.2924 173.595 36.3667C174.303 36.4771 174.999 36.6512 175.676 36.8869C173.075 37.3328 172.258 36.664 171.96 37.4071C171.663 38.1501 173.67 38.5217 174.561 38.3731Z" fill="#FF8B66"/>
<path d="M182.289 34.4347C181.175 33.1715 181.695 31.0165 181.695 30.7193C181.649 30.8867 181.565 31.041 181.448 31.17C181.332 31.299 181.188 31.3992 181.026 31.4624C180.907 32.0276 180.965 32.6155 181.191 33.147C181.417 33.6785 181.8 34.1279 182.289 34.4347Z" fill="#EF6E4B"/>
<path d="M311.809 18.83C311.809 18.83 311.363 20.6877 310.471 23.5114C310.174 24.7004 309.802 26.0379 309.356 27.4498L307.127 34.4347C306.681 35.7723 306.235 37.1098 305.715 38.3731C304.754 41.2041 303.587 43.9609 302.223 46.6213L301.777 47.4387C301.23 48.3085 300.609 49.129 299.919 49.8908C298.656 51.3027 296.947 53.0118 295.015 54.7952C293.083 56.5786 293.009 56.6529 291.894 57.5446C290.779 58.4363 288.327 60.5912 286.544 62.0774L283.2 64.7525C277.627 69.211 273.02 72.6292 273.02 72.6292L264.697 55.6126C267.075 54.0521 271.459 51.377 276.066 48.6276L279.262 46.6213L284.092 43.7976L287.435 41.7912L290.854 39.7849L292.34 38.8932L293.38 36.9612C294.123 35.5494 295.163 33.3944 296.427 31.0166L298.136 27.747L301.034 22.3225C301.628 21.2079 302.297 20.0932 302.817 19.0529C304.452 16.1549 305.79 13.8514 306.458 12.8853C307.748 13.3962 308.903 14.1987 309.831 15.2301C310.759 16.2614 311.436 17.4935 311.809 18.83Z" fill="#CFD8DC"/>
<path d="M286.544 62.0774L283.2 64.7525C282.409 58.807 279.934 53.2119 276.066 48.6276L279.261 46.6213C282.934 51.0893 285.436 56.4009 286.544 62.0774Z" fill="#8BBDDB"/>
<path d="M295.015 54.7952C293.975 55.6869 293.009 56.6529 291.894 57.5446C289.962 50.1881 286.395 45.8782 284.092 43.7976L287.435 41.7912C290.941 45.4758 293.537 49.929 295.015 54.7952Z" fill="#8BBDDB"/>
<path d="M302.223 46.6213L301.777 47.4387C301.23 48.3085 300.609 49.129 299.919 49.8908C297.545 45.993 294.472 42.5669 290.854 39.7849L292.34 38.8932L293.38 36.9612C296.84 39.6723 299.827 42.9362 302.223 46.6213Z" fill="#8BBDDB"/>
<path d="M307.127 34.4347C306.681 35.7723 306.235 37.1098 305.715 38.3731C302.96 35.5192 299.836 33.0453 296.427 31.0165L298.136 27.747C301.36 29.653 304.374 31.8948 307.127 34.4347Z" fill="#8BBDDB"/>
<path d="M310.471 23.5114C310.174 24.7003 309.802 26.0379 309.356 27.4497C306.884 25.2931 304.072 23.5606 301.034 22.3225C301.628 21.2079 302.297 20.0932 302.817 19.0529C305.558 20.1867 308.133 21.6865 310.471 23.5114Z" fill="#8BBDDB"/>
<path d="M241.662 60.0711L240.175 78.871L228.435 75.5272L224.571 74.3382L217.511 71.9604L213.87 70.6228C211.439 69.7385 209.057 68.7214 206.737 67.5762C205.822 67.1397 204.951 66.6172 204.136 66.0157L203.467 65.4213C201.515 63.7096 199.701 61.8461 198.043 59.8481C197.225 58.8821 196.334 57.9161 195.516 56.8758C194.699 55.8355 192.172 52.7889 190.612 50.8568L188.308 47.8102C185.633 44.392 183.85 41.8656 183.85 41.8656C183.998 37.4071 187.268 36.2181 187.268 36.2181C189.719 37.8951 192.076 39.7061 194.327 41.6426L197.225 44.0205L202.13 48.1074L205.028 50.5596L208.52 53.5319L209.858 54.6466L212.013 54.9438L216.768 55.7612L220.484 56.3557L225.611 57.173L229.252 57.7675C234.305 58.5849 238.987 59.4766 241.662 60.0711Z" fill="#CFD8DC"/>
<path d="M228.435 75.5272L224.571 74.3382C223.982 68.598 224.333 62.8001 225.611 57.173L229.252 57.7675C227.946 63.5944 227.669 69.6049 228.435 75.5272Z" fill="#8BBDDB"/>
<path d="M220.484 56.3557C218.75 61.3878 217.749 66.6432 217.511 71.9604L213.87 70.6228C214.146 65.559 215.122 60.5577 216.768 55.7612L220.484 56.3557Z" fill="#8BBDDB"/>
<path d="M212.013 54.9438C209.825 58.9621 208.057 63.1953 206.737 67.5762C205.822 67.1397 204.951 66.6172 204.136 66.0157L203.467 65.4213C204.821 61.3258 206.511 57.3491 208.52 53.5319L209.858 54.6466L212.013 54.9438Z" fill="#8BBDDB"/>
<path d="M205.028 50.5596C202.441 53.4526 200.104 56.5599 198.043 59.8481C197.225 58.8821 196.334 57.9161 195.516 56.8758C197.539 53.8201 199.747 50.8918 202.13 48.1074L205.028 50.5596Z" fill="#8BBDDB"/>
<path d="M197.225 44.0205C194.857 46.1353 192.647 48.4202 190.612 50.8568L188.308 47.8102C190.164 45.6125 192.175 43.5513 194.327 41.6426L197.225 44.0205Z" fill="#8BBDDB"/>
<path d="M291.374 119.963C291.374 119.963 280.971 130.812 266.852 133.488C259.08 134.942 251.202 135.762 243.296 135.94C243.296 135.94 242.702 133.042 241.736 128.658C241.439 127.469 241.216 126.205 240.919 124.868C240.621 123.53 239.804 119.815 239.209 116.991C238.912 115.728 238.689 114.539 238.392 113.276C238.095 112.013 237.426 108.594 236.906 106.216C236.683 104.953 236.386 103.764 236.163 102.501C235.568 99.4544 234.974 96.4821 234.379 93.6584L233.711 89.8687C233.042 86.5248 232.522 83.4038 232.076 80.9517C231.63 78.4995 231.704 78.128 231.556 77.0876C231.407 76.0473 231.481 76.4189 231.481 76.1216C231.333 73.5208 231.184 71.143 231.184 68.988V65.124C231.258 61.0371 231.481 58.5106 231.481 58.5106C234.454 56.5043 254.666 63.0434 254.666 63.0434C254.666 63.0434 269.601 50.1881 271.979 51.0798C273.512 51.851 274.799 53.0349 275.695 54.4979C276.429 55.5721 277.099 56.6887 277.701 57.8418C278.871 60.2177 279.865 62.6765 280.673 65.1983C281.119 66.4368 281.565 67.7743 282.011 69.211C282.68 71.5145 283.274 73.8924 283.943 76.3446L284.835 80.1343L286.395 87.4165C286.618 88.754 286.841 90.0173 287.138 91.2805L288.253 97.7453L288.922 101.758C289.367 104.582 289.739 107.257 290.111 109.635C290.482 112.013 290.482 112.384 290.631 113.573C291.151 117.511 291.374 119.963 291.374 119.963Z" fill="#CFD8DC"/>
<path d="M277.701 57.8418C273.168 62.4489 265.217 69.211 256.077 71.0687C254.068 71.4388 252.027 71.613 249.984 71.5888C244.039 71.5888 237.203 70.3999 231.184 68.9881V65.124C239.209 67.056 248.869 68.6908 255.334 67.4276C263.954 65.7185 271.682 58.7335 275.695 54.498C276.429 55.5721 277.099 56.6887 277.701 57.8418Z" fill="#8BBDDB"/>
<path d="M282.011 69.211C277.33 73.5208 265.812 81.6205 243.742 81.6205C239.844 81.6011 235.95 81.3779 232.076 80.9517C231.853 79.4655 231.704 78.128 231.556 77.0876C263.657 81.1003 277.552 68.6165 280.673 65.1983C281.119 66.4368 281.565 67.7743 282.011 69.211Z" fill="#8BBDDB"/>
<path d="M284.835 80.1343C275.918 85.1872 257.638 93.6584 236.088 93.6584H234.379L233.711 89.8687C256.077 90.5374 275.398 81.1746 283.943 76.3446L284.835 80.1343Z" fill="#8BBDDB"/>
<path d="M287.138 91.2805C279.336 95.5161 259.644 105.028 236.906 106.216C236.683 104.953 236.386 103.764 236.163 102.501C259.273 101.461 279.782 91.1319 286.395 87.4165C286.618 88.754 286.841 90.0173 287.138 91.2805Z" fill="#8BBDDB"/>
<path d="M288.922 101.758C280.005 106.96 260.759 116.62 239.209 116.991C238.912 115.728 238.689 114.539 238.392 113.276C260.239 113.053 280.302 102.501 288.253 97.7453L288.922 101.758Z" fill="#8BBDDB"/>
<path d="M290.631 113.573C281.491 118.7 261.279 128.658 242.999 128.658H241.736C241.439 127.469 241.216 126.205 240.919 124.868C259.496 125.76 281.639 114.39 290.111 109.635C290.259 111.046 290.482 112.384 290.631 113.573Z" fill="#8BBDDB"/>
<path d="M257.415 55.4639C257.415 55.4639 256.82 60.5169 258.678 62.0774C258.678 62.0774 257.712 65.6442 254.963 66.3129C252.213 66.9817 249.91 63.7122 249.91 63.7122C249.91 63.7122 250.727 58.8078 248.721 57.5446L257.415 55.4639Z" fill="#EF6E4B"/>
<path d="M259.867 44.8379C259.867 44.8379 261.873 41.494 257.118 36.2181C257.118 36.2181 254.888 31.1652 247.235 29.9762C239.581 28.7873 233.859 37.1841 233.859 41.7912C233.859 46.3983 236.609 41.7912 236.609 41.7912C236.609 41.7912 237.203 44.9865 238.095 46.4727C238.095 46.4727 237.798 51.0798 240.696 51.0798C243.594 51.0798 259.867 44.8379 259.867 44.8379Z" fill="#105E99"/>
<path d="M242.256 50.411C242.256 50.411 239.209 48.8505 239.804 51.5999C240.398 54.3493 243.742 55.0924 243.965 53.9778C244.188 52.8632 242.256 50.411 242.256 50.411Z" fill="#FF8B66"/>
<path d="M258.307 45.1351C258.307 45.1351 259.867 42.0885 260.982 44.6893C262.096 47.29 260.016 49.8908 259.124 49.0735C258.232 48.2561 258.307 45.1351 258.307 45.1351Z" fill="#FF8B66"/>
<path d="M253.774 58.9564C248.721 60.6655 244.708 58.2877 241.364 48.4047C239.655 43.2774 241.216 39.1905 246.937 37.3327C252.659 35.475 256.003 37.7786 257.786 42.9059C261.353 53.5319 259.05 57.2474 253.774 58.9564Z" fill="#FF8B66"/>
<path d="M257.266 46.9928C257.564 47.4387 257.266 48.1074 256.672 48.479C256.421 48.6306 256.123 48.6841 255.835 48.6292C255.547 48.5743 255.289 48.415 255.111 48.1817C254.814 47.6616 255.111 47.0671 255.706 46.6956C255.957 46.544 256.255 46.4905 256.543 46.5453C256.831 46.6002 257.089 46.7596 257.266 46.9928Z" fill="#DB614D"/>
<path d="M246.937 50.7825C246.958 50.9291 246.95 51.0784 246.912 51.2216C246.875 51.3648 246.809 51.4991 246.719 51.6167C246.629 51.7343 246.517 51.8328 246.389 51.9065C246.26 51.9802 246.118 52.0275 245.971 52.0458C245.303 52.1944 244.634 51.8972 244.56 51.377C244.485 50.8568 244.783 50.3367 245.451 50.1138C245.738 50.015 246.051 50.0292 246.327 50.1535C246.603 50.2777 246.822 50.5027 246.937 50.7825Z" fill="#DB614D"/>
<path d="M253.179 42.6086H253.031C252.322 42.3101 251.528 42.2837 250.802 42.5343C250.653 42.6086 250.504 42.5343 250.504 42.3857C250.478 42.3164 250.479 42.2399 250.507 42.1712C250.534 42.1025 250.586 42.0465 250.653 42.0142C251.499 41.7178 252.425 41.7442 253.254 42.0885C253.402 42.1628 253.402 42.3857 253.402 42.46L253.179 42.6086Z" fill="#FFB878"/>
<path d="M243.668 45.8039H243.445C243.296 45.7296 243.296 45.581 243.296 45.4323C243.755 44.6408 244.5 44.0556 245.377 43.7976C245.406 43.786 245.437 43.7807 245.469 43.7821C245.5 43.7834 245.531 43.7914 245.559 43.8054C245.587 43.8194 245.612 43.8392 245.632 43.8635C245.651 43.8877 245.666 43.9159 245.674 43.9462C245.7 44.0155 245.699 44.092 245.672 44.1607C245.644 44.2294 245.592 44.2854 245.526 44.3177C244.808 44.5322 244.197 45.0099 243.817 45.6553C243.817 45.6947 243.801 45.7325 243.773 45.7604C243.745 45.7882 243.707 45.8039 243.668 45.8039Z" fill="#FFB878"/>
<path d="M253.699 45.4323C253.922 46.1011 253.774 46.6956 253.402 46.7699C253.031 46.8442 252.659 46.4727 252.436 45.8782C252.213 45.2837 252.288 44.6149 252.659 44.5406C253.031 44.4663 253.477 44.8379 253.699 45.4323Z" fill="#1A4850"/>
<path d="M246.937 47.7359C247.086 48.3304 247.012 48.9248 246.64 49.0734C246.269 49.2221 245.823 48.7762 245.6 48.1817C245.377 47.5873 245.526 46.9185 245.897 46.7699C246.269 46.6213 246.715 47.0671 246.937 47.7359Z" fill="#1A4850"/>
<path d="M249.167 54.4979C249.167 54.4979 253.848 53.5319 255.78 51.6742C255.78 51.6742 255.483 55.1667 252.956 55.6869C252.277 55.8587 251.562 55.8385 250.893 55.6286C250.224 55.4187 249.627 55.0273 249.167 54.4979Z" fill="#1A4850"/>
<path d="M252.288 51.6742C251.9 51.777 251.5 51.827 251.099 51.8228V51.3027C251.619 51.2284 252.511 51.0798 252.585 50.7825C252.659 50.4853 252.585 50.5596 252.362 50.3367C252.139 50.1138 249.687 45.1351 249.613 44.9865L250.133 44.7636C250.133 44.7636 251.619 48.7019 252.808 49.9651C252.955 50.0913 253.066 50.2536 253.132 50.436C253.197 50.6185 253.213 50.8147 253.179 51.0055C252.965 51.3218 252.651 51.5572 252.288 51.6742Z" fill="#DB614D"/>
<path d="M245.451 35.0292C234.082 39.2648 240.919 49.9651 240.919 49.9651L242.553 51.4513C241.81 48.4047 242.33 46.6956 242.33 46.6956C241.598 45.3306 241.387 43.7462 241.736 42.2371C243.148 41.0482 246.64 38.7446 253.179 38.0758C254.177 39.0177 254.874 40.2324 255.186 41.5683C256.751 43.0433 258.014 44.8104 258.901 46.7699L259.05 44.0948C259.05 44.0948 256.449 30.9422 245.451 35.0292Z" fill="#FFB878"/>
<path d="M244.114 233.729L239.135 234.844C239.135 234.844 231.333 192.934 229.549 188.55C227.766 184.166 221.375 170.122 219.146 158.901C218.57 158.889 217.997 158.814 217.437 158.678L216.694 158.455L216.025 158.307C215.802 169.527 213.35 183.274 212.607 187.138C211.864 191.002 212.236 234.472 212.236 234.472L207.108 234.324C197.374 199.771 202.501 186.841 202.501 186.841C202.501 186.841 193.584 155.78 196.705 144.782C197.683 141.464 198.874 138.212 200.272 135.048L200.643 134.379C201.944 131.472 203.459 128.665 205.176 125.982L215.579 127.246L215.728 127.097H216.025V130.367H217.66L221.97 130.144H222.564L226.354 129.921C226.354 129.921 228.583 133.562 231.853 139.358L232.224 140.027L235.94 147.012C241.216 157.192 239.432 186.321 239.432 186.321C239.432 186.321 246.937 197.913 244.114 233.729Z" fill="#8BBDDB"/>
<path d="M208.594 127.171C208.594 127.246 205.845 133.636 200.272 135.048L200.643 134.379C205.622 132.819 208.074 127.023 208.074 126.948L208.594 127.171Z" fill="#6097B2"/>
<path d="M232.224 139.952C225.983 138.615 222.787 132.15 221.97 130.144L221.747 129.549L222.267 129.326C222.342 129.583 222.441 129.832 222.564 130.069C223.456 132.15 226.354 137.872 231.853 139.284L232.224 139.952Z" fill="#6097B2"/>
<path d="M217.437 158.678L216.694 158.455C214.899 154.909 213.599 151.134 212.83 147.235C210.824 138.615 215.282 129.401 215.356 129.326L215.802 129.549C215.802 129.624 211.418 138.689 213.35 147.086L213.573 148.126C213.647 148.349 213.647 148.498 213.722 148.721C214.546 152.18 215.794 155.524 217.437 158.678Z" fill="#6097B2"/>
<path d="M213.424 148.721H213.35V148.126C213.647 148.201 213.945 147.978 214.242 147.68C214.539 147.383 215.431 145.971 214.762 142.702C213.87 138.243 217.14 130.59 217.288 130.218L217.809 130.441C217.809 130.515 214.465 138.318 215.282 142.553C216.1 146.789 215.208 147.458 214.688 148.052C214.535 148.245 214.343 148.403 214.126 148.518C213.909 148.634 213.67 148.702 213.424 148.721Z" fill="#6097B2"/>
<path d="M213.573 86.5991C213.573 86.5991 215.208 83.5525 212.904 78.4252C210.601 73.2979 211.047 59.1051 222.713 59.6995C222.713 59.6995 229.624 58.5106 233.042 63.0434C236.46 67.5762 239.358 83.5525 235.717 95.3675C232.076 107.182 208.892 104.062 213.573 86.5991Z" fill="#F24052"/>
<path d="M226.354 129.846C222.767 130.896 218.984 131.093 215.308 130.422C211.631 129.751 208.162 128.231 205.176 125.982C205.176 125.982 203.244 86.6734 206.885 84.0726C208.446 82.8837 211.641 83.8497 214.613 85.2615C217.278 86.5154 219.838 87.9815 222.267 89.6457C222.267 89.6457 229.029 88.6797 234.379 89.2742C237.798 89.6457 240.547 90.686 240.696 92.9153C241.067 98.7113 226.354 129.846 226.354 129.846Z" fill="#FF8B66"/>
<path d="M234.677 89.3485C232.373 89.1256 231.927 90.909 229.624 91.7263C227.677 92.4545 225.66 92.9775 223.605 93.2868C222.564 93.3611 221.97 94.6987 221.97 94.6987C221.97 94.6987 221.598 92.9153 221.078 92.7667C220.558 92.6181 215.654 87.788 214.613 85.2615C217.278 86.5153 219.838 87.9815 222.267 89.6457C222.267 89.6457 229.029 88.6797 234.379 89.2742L234.677 89.3485Z" fill="#EF6E4B"/>
<path d="M204.805 238.708C205.102 236.553 204.285 235.067 204.879 234.027C205.473 232.986 206.662 234.398 206.662 234.398C206.737 232.02 210.749 232.02 211.195 233.135C211.288 233.42 211.413 233.695 211.567 233.952C211.79 233.358 212.236 232.763 212.756 233.135C214.985 234.398 212.236 237.742 214.242 240.194C216.248 242.646 215.208 248.071 215.208 248.071H203.17C201.758 241.457 204.433 240.789 204.805 238.708Z" fill="#CFD8DC"/>
<path d="M212.236 237.891C212.236 237.891 209.338 236.404 205.622 238.411L206.365 236.999C207.198 236.536 208.122 236.262 209.073 236.198C210.024 236.134 210.977 236.28 211.864 236.627L212.236 237.891Z" fill="#ADBEC4"/>
<path d="M212.681 240.194C210.106 239.392 207.325 239.577 204.879 240.714L205.622 239.302C205.622 239.302 209.189 237.742 212.236 238.931L212.681 240.194Z" fill="#ADBEC4"/>
<path d="M246.343 238.708C246.046 236.553 246.789 235.067 246.269 234.027C245.749 232.986 244.485 234.398 244.485 234.398C244.411 232.02 240.324 232.02 239.952 233.135L239.581 233.952C239.358 233.358 238.912 232.763 238.318 233.135C236.163 234.398 238.838 237.742 236.906 240.194C234.974 242.646 235.94 248.071 235.94 248.071H247.978C249.39 241.457 246.64 240.789 246.343 238.708Z" fill="#CFD8DC"/>
<path d="M238.912 237.891C238.912 237.891 241.736 236.404 245.526 238.411L244.783 236.999C243.948 236.541 243.024 236.27 242.074 236.206C241.124 236.141 240.172 236.285 239.284 236.627L238.912 237.891Z" fill="#ADBEC4"/>
<path d="M238.392 240.194C240.992 239.394 243.796 239.579 246.269 240.714L245.526 239.302C245.526 239.302 241.959 237.742 238.912 238.931L238.392 240.194Z" fill="#ADBEC4"/>
<path d="M221.375 76.7161C221.375 76.7161 222.267 87.1936 219.369 88.6797C219.369 88.6797 221.524 92.6181 227.246 90.2402C227.246 90.2402 226.28 84.8157 230.144 78.4252C232.67 74.1153 221.375 76.7161 221.375 76.7161Z" fill="#EF6E4B"/>
<path d="M231.927 73.075C231.927 73.075 234.082 70.5485 234.602 73.2979C235.122 76.0473 232.373 77.905 231.704 76.939C231.036 75.973 231.927 73.075 231.927 73.075Z" fill="#FF8B66"/>
<path d="M215.505 74.4869C215.505 74.4869 212.979 72.3319 212.904 75.0813C212.83 77.8307 215.802 79.3169 216.248 78.2766C216.694 77.2363 215.505 74.4869 215.505 74.4869Z" fill="#FF8B66"/>
<path d="M224.794 85.1872C229.995 84.8157 232.745 81.1746 231.927 70.9201C231.556 65.7185 228.583 62.6718 222.787 63.1177C216.991 63.5635 214.688 66.9817 215.134 72.2576C215.951 83.1809 219.443 85.5588 224.794 85.1872Z" fill="#FF8B66"/>
<path d="M217.14 75.7501C217.14 75.8932 217.169 76.0348 217.226 76.1662C217.282 76.2975 217.366 76.4156 217.47 76.5133C217.575 76.6109 217.699 76.6859 217.834 76.7336C217.968 76.7813 218.112 76.8006 218.255 76.7904C218.391 76.823 218.533 76.8276 218.672 76.8038C218.811 76.78 218.943 76.7283 219.061 76.6519C219.179 76.5755 219.28 76.4759 219.359 76.3592C219.437 76.2426 219.491 76.1112 219.518 75.973C219.518 75.8299 219.489 75.6883 219.432 75.557C219.375 75.4257 219.292 75.3075 219.187 75.2098C219.083 75.1122 218.959 75.0372 218.824 74.9895C218.689 74.9418 218.546 74.9225 218.403 74.9327C218.266 74.9001 218.124 74.8955 217.986 74.9194C217.847 74.9432 217.715 74.9948 217.597 75.0712C217.479 75.1476 217.377 75.2472 217.299 75.3639C217.22 75.4806 217.166 75.6119 217.14 75.7501Z" fill="#DB614D"/>
<path d="M227.84 75.2299C227.874 75.3697 227.936 75.5009 228.024 75.6153C228.111 75.7297 228.22 75.8248 228.346 75.8946C228.472 75.9645 228.611 76.0075 228.754 76.021C228.897 76.0345 229.041 76.0181 229.178 75.973C229.847 75.8987 230.367 75.3786 230.292 74.8584C230.206 74.5873 230.02 74.3593 229.771 74.2211C229.523 74.083 229.231 74.0451 228.955 74.1153C228.286 74.1896 227.766 74.7098 227.84 75.2299Z" fill="#DB614D"/>
<path d="M218.998 70.2513C219.072 70.3256 219.221 70.2513 219.295 70.177C219.807 69.6515 220.495 69.3339 221.227 69.2853C221.306 69.2853 221.381 69.254 221.437 69.1982C221.493 69.1425 221.524 69.0669 221.524 68.988C221.45 68.8394 221.375 68.7651 221.227 68.7651C220.332 68.801 219.483 69.1723 218.849 69.8054C218.775 69.954 218.775 70.1027 218.923 70.177C219.072 70.2513 218.923 70.2513 218.998 70.2513Z" fill="#F24052"/>
<path d="M226.503 68.8394H226.651C227.385 68.7616 228.122 68.9459 228.732 69.3596C228.806 69.5082 229.029 69.4339 229.103 69.3596C229.136 69.3031 229.153 69.239 229.153 69.1738C229.153 69.1086 229.136 69.0445 229.103 68.988C228.758 68.6961 228.353 68.4847 227.916 68.369C227.479 68.2533 227.021 68.2363 226.577 68.3193C226.518 68.3193 226.461 68.3428 226.419 68.3846C226.378 68.4264 226.354 68.4831 226.354 68.5422C226.354 68.7651 226.428 68.8394 226.503 68.8394Z" fill="#F24052"/>
<path d="M219.741 73.0007C219.815 73.6695 220.112 74.1153 220.484 74.1153C220.855 74.1153 221.153 73.5208 221.078 72.9264C221.004 72.3319 220.707 71.7375 220.335 71.7375C219.964 71.7375 219.741 72.3319 219.741 73.0007Z" fill="#1A4850"/>
<path d="M226.949 72.4062C227.023 73.075 227.32 73.5208 227.692 73.5208C228.063 73.5208 228.286 72.9264 228.286 72.3319C228.286 71.7374 227.915 71.143 227.543 71.143C227.171 71.143 226.949 71.7374 226.949 72.4062Z" fill="#1A4850"/>
<path d="M226.577 78.7967C226.577 78.7967 223.307 79.4655 221.598 78.7224C221.598 78.7224 222.713 81.1003 224.496 80.7287C224.986 80.6265 225.439 80.3925 225.805 80.0521C226.172 79.7116 226.439 79.2776 226.577 78.7967Z" fill="#1A4850"/>
<path d="M221.524 72.5548C221.524 72.5548 220.93 70.9944 220.261 71.143C219.592 71.2916 219.295 72.7035 219.295 72.7035L218.329 72.2576H219.295C219.295 72.2576 219.666 70.7715 220.261 70.7715C220.855 70.7715 221.524 72.5548 221.524 72.5548Z" fill="#1A4850"/>
<path d="M226.577 72.3319C226.577 72.3319 226.949 70.6971 227.543 70.7714C228.138 70.8457 228.806 72.1833 228.806 72.1833L229.624 71.5888L228.732 71.8117C228.732 71.8117 228.138 70.3999 227.543 70.4742C226.949 70.5485 226.577 72.3319 226.577 72.3319Z" fill="#1A4850"/>
<path d="M223.753 76.3446H224.125V75.8244C223.967 75.8244 223.816 75.7618 223.704 75.6503C223.593 75.5388 223.53 75.3876 223.53 75.2299C223.525 75.103 223.548 74.9765 223.6 74.8604C223.652 74.7443 223.729 74.6419 223.828 74.5612C223.902 74.4869 224.051 74.5612 224.125 74.7098L224.571 74.4125C224.477 74.2487 224.33 74.1221 224.154 74.0544C223.978 73.9867 223.784 73.982 223.605 74.041C223.391 74.173 223.216 74.3597 223.099 74.5817C222.981 74.8038 222.925 75.0532 222.936 75.3043C222.963 75.5363 223.053 75.7563 223.198 75.94C223.342 76.1236 223.534 76.2637 223.753 76.3446Z" fill="#DB614D"/>
<path d="M224.645 64.7525C224.645 64.7525 226.577 64.158 227.394 67.056C228.806 72.1833 229.772 80.4315 233.042 84.5928C235.494 87.5651 236.906 86.3019 236.906 86.3019C237.282 84.3452 237.154 82.3251 236.534 80.4315C235.568 77.5335 236.832 66.9074 233.042 63.0434C229.252 59.1794 222.713 61.7058 222.713 61.7058C222.713 61.7058 219.518 59.7738 216.397 61.7058C213.276 63.6379 212.384 72.109 215.579 75.8244C215.579 75.8244 215.356 72.6291 216.768 71.4402C218.18 70.2513 218.923 63.192 224.645 64.7525Z" fill="#F24052"/>
<path d="M200.198 22.917C199.009 26.781 201.981 28.4901 199.752 31.1652C197.522 33.8403 196.334 31.4624 196.334 31.4624C195.141 29.2569 193.612 27.2512 191.801 25.5177C190.612 24.3288 191.504 24.3288 191.504 24.3288L191.132 24.0316C190.24 23.3628 189.423 22.9913 190.315 22.694C191.206 22.3968 193.881 24.2545 193.881 24.2545C190.76 20.762 189.572 21.0592 190.389 20.762C191.206 20.4648 194.699 22.8426 194.847 22.917C193.287 20.5391 191.949 19.7217 192.841 19.6474C193.733 19.5731 196.928 23.4371 198.117 24.9233L198.563 25.4434C199.306 22.2482 200.198 22.917 200.198 22.917Z" fill="#FF8B66"/>
<path d="M198.117 24.9233L198.563 25.4434C198.257 25.8092 198.05 26.2463 197.959 26.7141C197.868 27.1818 197.897 27.665 198.043 28.1185C197.656 27.6719 197.449 27.0972 197.463 26.5066C197.477 25.9159 197.71 25.3515 198.117 24.9233Z" fill="#EF6E4B"/>
<path d="M194.179 26.2608C193.881 26.0379 192.247 24.4774 191.504 24.3288L191.132 24.0316C191.801 23.5114 193.881 25.8893 194.179 26.2608Z" fill="#EF6E4B"/>
<path d="M199.752 31.1652C199.752 31.1652 199.306 56.6529 198.043 61.7058C198.043 61.7058 202.65 77.6821 209.56 83.4782C209.56 83.4782 210.675 87.788 204.656 96.3335C204.656 96.3335 192.99 75.4529 191.132 63.5635L196.334 31.4624L199.752 31.1652Z" fill="#FF8B66"/>
<path d="M215.059 85.4845C215.654 87.5651 216.025 94.9959 223.01 98.7856C229.995 102.575 237.575 97.0023 239.655 90.909C239.655 90.909 240.473 89.6457 243.296 92.7667C243.296 92.7667 257.861 99.9003 259.793 103.541C261.725 107.182 260.536 121.301 254.666 121.524C248.795 121.747 241.736 115.208 239.878 119.518C238.02 123.828 227.171 138.986 204.656 126.726C204.656 126.726 201.832 123.233 201.832 120.038C201.832 116.843 200.421 96.0362 200.421 96.0362C200.421 96.0362 192.098 93.6584 194.179 74.041C194.179 74.041 199.9 77.2363 199.752 66.7588C199.752 66.7588 204.433 64.6039 205.994 73.3722C207.034 79.2426 212.904 83.5525 212.904 83.5525C212.904 83.5525 214.168 82.2149 215.059 85.4845Z" fill="#105E99"/>
<path d="M263.062 110.824C268.041 108.743 278.964 99.7516 282.903 94.4758L280.525 92.3208C280.525 92.3208 267.669 101.089 262.765 102.65C257.861 104.21 255.186 107.034 255.78 110.526C256.375 114.019 262.022 111.269 263.062 110.824Z" fill="#FF8B66"/>
<path d="M286.99 87.1193C284.537 90.3888 281.416 88.977 280.525 92.3208C280.005 94.4015 282.308 95.2189 282.308 95.2189C284.808 94.9505 287.333 95.0255 289.813 95.4418C291.448 95.739 290.928 94.9959 290.928 94.9959L291.374 95.1446C292.488 95.5161 293.231 95.8876 292.934 95.0702C292.637 94.2528 289.59 92.9896 289.59 92.9896C294.272 93.5098 294.718 94.6987 294.495 93.807C294.272 92.9153 290.259 91.5778 290.111 91.5034C293.009 91.3548 294.42 91.9493 293.975 91.2062C293.529 90.4631 288.476 90.0916 286.618 90.0173H285.949C288.03 87.4908 286.99 87.1193 286.99 87.1193Z" fill="#FF8B66"/>
<path d="M286.618 90.0173H285.949C285.835 90.4934 285.596 90.9305 285.256 91.2832C284.917 91.6359 284.489 91.8915 284.017 92.0236C284.622 92.0702 285.223 91.8908 285.703 91.5202C286.184 91.1497 286.51 90.6142 286.618 90.0173Z" fill="#EF6E4B"/>
<path d="M287.733 93.9556C288.179 94.0299 290.408 94.4758 290.928 94.9959L291.374 95.1445C291.448 94.2528 288.253 94.0299 287.733 93.9556Z" fill="#EF6E4B"/>
<path d="M146.919 144.782C148.94 137.92 152.133 131.459 156.356 125.685L165.793 127.246V127.097L166.536 127.246H166.685L176.419 129.252C179.461 135.256 181.805 141.589 183.404 148.126C186.228 159.198 177.905 187.138 177.905 187.138C177.905 187.138 182.587 200.216 171.663 234.398H166.536C166.536 234.398 168.468 191.82 167.725 187.138C166.982 182.457 166.239 168.115 166.685 156.746C166.071 156.845 165.447 156.87 164.827 156.82C164.827 168.264 163.489 183.125 162.746 187.138C162.003 191.151 162.3 234.472 162.3 234.472L157.173 234.324C147.439 199.771 152.566 186.841 152.566 186.841C152.566 186.841 143.723 155.78 146.919 144.782Z" fill="#FF8B66"/>
<path d="M190.909 92.9153C190.538 87.1192 172.481 89.6457 172.481 89.6457C172.481 89.6457 160.666 81.4718 157.099 84.0726C155.761 84.9643 155.167 90.5374 154.944 97.2995C153.606 99.6773 152.417 103.318 154.87 106.662C154.87 116.545 155.315 125.982 155.315 125.982C158.301 128.231 161.77 129.751 165.447 130.422C169.124 131.093 172.906 130.896 176.493 129.846C176.493 129.846 180.877 120.707 184.741 111.344C185.806 110.442 186.633 109.293 187.151 107.998C187.669 106.702 187.863 105.3 187.714 103.913C189.646 98.9343 190.983 94.6987 190.909 92.9153Z" fill="#0E3944"/>
<path d="M188.605 63.3406C183.33 54.3493 170.103 55.464 165.496 61.3343C159.997 68.3936 162.969 84.89 162.969 84.89C162.969 84.89 175.602 74.3382 183.181 88.754C183.181 88.754 194.476 73.3722 188.605 63.3406Z" fill="#FFB878"/>
<path d="M154.944 238.708C155.241 236.553 154.498 235.067 155.018 234.027C155.538 232.986 156.802 234.398 156.802 234.398C156.876 232.02 160.963 232.02 161.334 233.135L161.706 233.952C162.003 233.358 162.375 232.763 162.969 233.135C165.124 234.398 162.449 237.742 164.381 240.194C166.313 242.646 165.347 248.071 165.347 248.071H153.309C151.897 241.457 154.647 240.789 154.944 238.708Z" fill="#0E3944"/>
<path d="M162.375 237.891C162.375 237.891 159.551 236.404 155.761 238.411L156.504 236.999C157.352 236.539 158.288 236.268 159.25 236.204C160.212 236.139 161.177 236.284 162.077 236.627L162.375 237.891Z" fill="#205260"/>
<path d="M162.895 240.194C162.895 240.194 158.808 238.782 155.092 240.714L155.761 239.302C155.761 239.302 159.402 237.742 162.375 238.931L162.895 240.194Z" fill="#205260"/>
<path d="M174.19 238.708C173.892 236.553 174.71 235.067 174.115 234.027C173.521 232.986 172.332 234.398 172.332 234.398C172.258 232.02 168.245 232.02 167.799 233.135C167.706 233.42 167.582 233.695 167.428 233.952C167.205 233.358 166.759 232.763 166.239 233.135C164.084 234.398 166.759 237.742 164.753 240.194C162.746 242.646 163.787 248.071 163.787 248.071H175.824C177.236 241.457 174.561 240.789 174.19 238.708Z" fill="#0E3944"/>
<path d="M166.759 237.891C166.759 237.891 169.657 236.404 173.372 238.411L172.629 236.999C171.797 236.536 170.872 236.262 169.921 236.198C168.971 236.134 168.018 236.28 167.13 236.627L166.759 237.891Z" fill="#205260"/>
<path d="M166.313 240.194C168.888 239.392 171.67 239.577 174.115 240.714L173.372 239.302C173.372 239.302 169.806 237.742 166.759 238.931L166.313 240.194Z" fill="#205260"/>
<path d="M171.589 76.7161C171.814 80.8103 171.102 84.9018 169.508 88.6797C169.508 88.6797 171.663 92.6181 177.459 90.2402C177.459 90.2402 176.493 84.8157 180.283 78.4252C182.884 74.1153 171.589 76.7161 171.589 76.7161Z" fill="#EF6E4B"/>
<path d="M184.37 73.7438C184.37 73.7438 187.119 71.8118 186.896 74.5612C186.674 77.3106 183.553 78.4995 183.181 77.3849C182.809 76.2702 184.37 73.7438 184.37 73.7438Z" fill="#FF8B66"/>
<path d="M168.096 70.8458C168.096 70.8458 166.239 68.0963 165.421 70.7714C164.604 73.4465 167.13 75.6015 167.874 74.7098C168.617 73.8181 168.096 70.8458 168.096 70.8458Z" fill="#FF8B66"/>
<path d="M174.413 83.5525C179.54 84.5185 183.032 81.6948 184.89 71.6631C185.856 66.4616 183.85 62.8205 178.054 61.7058C172.258 60.5912 169.285 63.4149 168.319 68.5422C166.313 79.3912 169.062 82.5865 174.413 83.5525Z" fill="#FF8B66"/>
<path d="M169.36 72.4805C169.311 72.7647 169.366 73.057 169.517 73.3031C169.667 73.5492 169.902 73.7322 170.177 73.8181C170.446 73.9275 170.745 73.9351 171.019 73.8393C171.292 73.7435 171.522 73.551 171.663 73.2979C171.812 72.8521 171.44 72.2576 170.846 71.9604C170.577 71.8509 170.278 71.8434 170.004 71.9392C169.731 72.035 169.501 72.2275 169.36 72.4805Z" fill="#DB614D"/>
<path d="M179.911 74.7098C179.901 74.8525 179.921 74.9958 179.968 75.1307C180.016 75.2657 180.091 75.3893 180.189 75.4939C180.286 75.5985 180.404 75.6819 180.536 75.7387C180.667 75.7956 180.809 75.8248 180.952 75.8244C181.237 75.8917 181.538 75.8436 181.789 75.6906C182.039 75.5375 182.219 75.2919 182.289 75.007C182.364 74.4869 181.843 73.9667 181.175 73.8924C180.9 73.8462 180.618 73.9045 180.384 74.0558C180.151 74.2071 179.982 74.4404 179.911 74.7098Z" fill="#DB614D"/>
<path d="M172.555 67.6505H172.926C173.556 67.2885 174.291 67.1571 175.007 67.279C175.156 67.3533 175.304 67.279 175.304 67.1304C175.33 67.061 175.329 66.9845 175.302 66.9158C175.274 66.8471 175.222 66.7911 175.156 66.7588C174.287 66.596 173.389 66.7544 172.629 67.2047C172.594 67.2179 172.562 67.2401 172.538 67.269C172.513 67.2979 172.496 67.3326 172.489 67.3698C172.481 67.407 172.483 67.4454 172.495 67.4816C172.507 67.5177 172.527 67.5503 172.555 67.5762V67.6505Z" fill="#FFB878"/>
<path d="M180.209 68.245H180.357C181.075 68.3747 181.729 68.7409 182.215 69.2853C182.289 69.4339 182.438 69.4339 182.587 69.3596C182.64 69.316 182.677 69.255 182.691 69.1872C182.704 69.1194 182.694 69.0489 182.661 68.988C182.1 68.3054 181.305 67.8552 180.432 67.7248C180.283 67.7248 180.134 67.7991 180.134 67.9477C180.119 67.9993 180.117 68.0543 180.13 68.1067C180.143 68.159 180.17 68.2068 180.209 68.245Z" fill="#FFB878"/>
<path d="M172.629 70.4742C172.555 71.143 172.704 71.7374 173.075 71.8117C173.447 71.8861 173.818 71.3659 173.892 70.7714C173.967 70.177 173.818 69.5082 173.521 69.4339C173.224 69.3596 172.778 69.8797 172.629 70.4742Z" fill="#1A4850"/>
<path d="M179.614 71.8861C179.54 72.5548 179.689 73.1493 180.06 73.2236C180.432 73.2979 180.803 72.7778 180.952 72.1833C181.1 71.5888 180.877 70.9201 180.506 70.8458C180.134 70.7714 179.763 71.2916 179.614 71.8861Z" fill="#1A4850"/>
<path d="M177.682 77.8307C177.682 77.8307 174.413 77.6821 172.926 76.5675C172.926 76.5675 173.447 79.094 175.23 79.1683C175.726 79.2214 176.227 79.1218 176.665 78.8828C177.103 78.6438 177.458 78.2767 177.682 77.8307Z" fill="#1A4850"/>
<path d="M174.413 70.4742C174.413 70.4742 174.264 68.8394 173.595 68.8394C172.926 68.8394 172.258 70.1027 172.258 70.1027L171.44 69.4339L172.332 69.7311C172.332 69.7311 173.075 68.3936 173.67 68.5422C174.264 68.6908 174.413 70.4742 174.413 70.4742Z" fill="#1A4850"/>
<path d="M179.391 71.6631C179.391 71.6631 180.134 70.177 180.729 70.3999C181.323 70.6228 181.546 72.0347 181.546 72.0347L182.587 71.7374H181.621C181.621 71.7374 181.398 70.2513 180.803 70.1027C180.209 69.954 179.391 71.6631 179.391 71.6631Z" fill="#1A4850"/>
<path d="M175.602 74.7098C175.676 74.8584 175.824 74.8584 175.973 74.9327L176.196 74.4125C175.75 74.2639 175.676 73.9667 175.75 73.7438C175.824 73.5209 176.047 73.1493 176.196 73.1493C176.345 73.1493 176.419 73.2236 176.493 73.3722L177.013 73.2236C176.791 72.6292 176.345 72.5548 176.122 72.6292C175.899 72.7035 175.304 73.075 175.156 73.5952C175.124 73.8038 175.149 74.017 175.228 74.2129C175.306 74.4088 175.435 74.5803 175.602 74.7098Z" fill="#DB614D"/>
<path d="M167.799 72.6291C167.799 72.6291 165.644 66.3873 169.508 61.26C173.372 56.1327 183.85 59.9968 185.782 63.9351C187.714 67.8734 183.924 75.7501 183.924 75.7501C183.924 75.7501 186.822 65.2726 181.026 63.4892C181.026 63.4892 180.283 66.1643 175.75 68.022C171.217 69.8797 168.691 69.5825 168.691 69.5825L167.799 72.6291Z" fill="#FFB878"/>
<path d="M186.228 89.5714C186.228 89.5714 192.767 89.6457 208.966 105.919C211.195 108.148 208.669 115.208 201.981 110.824C195.293 106.439 189.646 101.089 188.16 102.947C188.16 102.947 184.296 93.6584 186.228 89.5714Z" fill="#EF6E4B"/>
<path d="M209.932 104.953C209.858 99.603 205.622 86.0046 202.278 80.4315L199.38 81.7691C199.38 81.7691 202.575 97.0023 202.13 102.204C201.684 107.405 203.393 110.824 206.885 111.641C210.378 112.458 209.932 106.068 209.932 104.953Z" fill="#FF8B66"/>
<path d="M197.002 73.8924C199.083 77.3849 196.631 79.7628 199.38 81.7691C202.13 83.7754 202.724 81.2489 202.724 81.2489C203.395 78.8315 204.421 76.5274 205.771 74.4126C206.662 73.0007 205.771 73.1493 205.771 73.1493C205.771 73.1493 205.994 72.9264 206.068 72.8521C206.142 72.7778 207.48 71.4402 206.588 71.3659C205.696 71.2916 203.393 73.6695 203.393 73.6695C205.622 69.5082 206.885 69.5825 205.994 69.4339C205.102 69.2853 202.278 72.5549 202.204 72.6292C203.17 69.9541 204.285 68.8394 203.393 68.9138C202.501 68.9881 200.272 73.5952 199.529 75.3043C199.4 75.5129 199.3 75.7379 199.232 75.973C197.671 73.0007 197.002 73.8924 197.002 73.8924Z" fill="#FF8B66"/>
<path d="M199.529 75.3043C199.4 75.5129 199.3 75.7379 199.232 75.973C199.604 76.2553 199.896 76.6302 200.079 77.0604C200.261 77.4907 200.328 77.9612 200.272 78.4252C200.544 77.9025 200.618 77.2994 200.482 76.7264C200.345 76.1533 200.007 75.6485 199.529 75.3043Z" fill="#EF6E4B"/>
<path d="M203.616 75.7501C203.839 75.3785 205.028 73.5208 205.771 73.1493C206.514 72.7778 205.994 72.9264 206.068 72.8521C206.142 72.7778 203.839 75.3042 203.616 75.7501Z" fill="#EF6E4B"/>
<path d="M159.328 83.5524C159.328 83.5524 152.789 82.2149 133.617 94.773C130.942 96.4821 131.983 103.913 139.488 101.089C146.993 98.2655 153.904 93.9556 155.018 96.1105C155.018 96.1105 160.294 87.9366 159.328 83.5524Z" fill="#EF6E4B"/>
<path d="M132.874 93.6584C133.989 88.3825 140.974 75.973 145.358 71.2173L147.959 73.1493C147.959 73.1493 141.643 87.3422 141.048 92.5438C140.454 97.7453 138.076 100.718 134.509 100.792C130.942 100.866 132.651 94.773 132.874 93.6584Z" fill="#FF8B66"/>
<path d="M151.897 65.8671C149.148 68.8394 151.08 71.6631 147.959 73.1493C146.027 74.041 144.764 71.9604 144.764 71.9604C144.6 69.446 144.074 66.9683 143.203 64.6039C142.609 63.0434 143.426 63.4149 143.426 63.4149L143.203 62.9691C142.683 62.0031 142.163 61.3343 143.055 61.4829C143.946 61.6315 145.655 64.3809 145.655 64.3809C144.318 59.8481 143.055 59.6252 144.021 59.6995C144.987 59.7738 146.993 63.4892 146.993 63.5635C146.696 60.7398 145.804 59.4023 146.621 59.6995C147.439 59.9968 148.702 64.9754 149.148 66.7588C149.182 66.9849 149.231 67.2084 149.296 67.4276C151.377 64.9011 151.897 65.8671 151.897 65.8671Z" fill="#FF8B66"/>
<path d="M149.148 66.7588C149.182 66.9849 149.231 67.2084 149.296 67.4276C148.865 67.6318 148.495 67.9448 148.221 68.3356C147.948 68.7265 147.78 69.1818 147.736 69.6568C147.581 69.0847 147.639 68.476 147.899 67.9432C148.158 67.4104 148.602 66.9897 149.148 66.7588Z" fill="#EF6E4B"/>
<path d="M144.987 66.313C144.912 65.9414 144.095 63.8608 143.426 63.4149L143.203 62.9691C144.095 62.8205 144.912 65.8671 144.987 66.313Z" fill="#EF6E4B"/>
<path d="M155.241 124.05C155.241 124.05 133.172 154.294 140.082 186.321C140.082 186.321 147.587 193.231 153.458 190.854C159.328 188.476 165.347 197.095 170.623 194.346C175.899 191.597 180.432 189.516 184.073 191.002C187.714 192.488 193.807 186.321 193.807 186.321C193.807 186.321 191.132 150.876 177.682 127.469C177.682 127.469 166.759 132.522 155.241 124.05Z" fill="#FFB878"/>
<path d="M164.381 240.194C165.161 241.332 165.696 242.62 165.952 243.976C166.208 245.332 166.179 246.727 165.867 248.071H163.787C163.548 245.43 163.749 242.769 164.381 240.194Z" fill="#07262D"/>
<path d="M92.7479 158.009C92.7479 158.009 96.7605 170.716 106.569 187.733C106.569 187.733 104.934 205.789 132.874 239.228L136.738 237.073C136.738 237.073 122.323 203.486 120.019 193.529C117.715 183.571 118.681 170.27 111.176 149.464L92.7479 158.009Z" fill="#FF8B66"/>
<path d="M109.764 132.447L96.5376 127.097C94.2341 134.454 88.2894 139.729 88.8096 151.247C89.0325 156.895 92.7479 162.765 92.7479 162.765C108.353 162.245 113.629 155.706 113.629 155.706L111.251 144.708C111.251 144.708 109.69 137.277 109.764 132.447Z" fill="#CE364C"/>
<path d="M78.4064 149.538C78.4064 149.538 77.9606 162.839 81.6017 182.159C81.6017 182.159 74.0222 198.582 89.1811 239.451L93.491 238.708C93.491 238.708 91.1874 202.223 92.302 192.117C93.4167 182.011 99.287 172.945 98.6926 147.606L78.4064 149.538Z" fill="#FF8B66"/>
<path d="M109.764 132.447L104.563 141.364L103.3 143.445L100.55 148.052L98.8412 160.313V161.13C85.4657 159.644 78.3321 163.805 78.3321 163.805L78.1835 162.616V162.245C78.1835 162.171 78.1835 162.171 78.1092 162.096C76.9203 158.381 75.1369 148.498 77.2175 141.81C80.6357 130.812 86.7289 131.853 91.336 125.685L109.764 132.447Z" fill="#F24052"/>
<path d="M86.506 235.661C86.506 235.661 88.2151 239.451 87.695 242.052C87.1748 244.653 85.6886 245.544 87.0262 248.071H97.5036C97.8289 247.14 97.8829 246.136 97.6592 245.175C97.4356 244.215 96.9435 243.338 96.2404 242.646C94.9029 241.234 93.8625 234.547 93.8625 234.547C93.7249 234.537 93.587 234.563 93.4619 234.621C93.3367 234.679 93.2283 234.768 93.1467 234.879C93.0651 234.99 93.013 235.12 92.9952 235.257C92.9775 235.394 92.9946 235.533 93.0451 235.661C93.0451 235.661 93.0451 232.54 90.4444 232.912C87.8436 233.284 87.9922 236.182 87.9922 236.182C87.9374 236.043 87.8532 235.917 87.7456 235.813C87.6379 235.71 87.5091 235.631 87.3681 235.581C87.2271 235.532 87.0771 235.514 86.9284 235.527C86.7796 235.541 86.6355 235.587 86.506 235.661Z" fill="#0C476B"/>
<path d="M149.222 248.071H131.611C131.611 248.071 131.165 244.281 131.908 243.092C132.651 241.903 129.159 237.296 129.159 237.296C129.159 237.296 131.537 234.324 133.617 236.033C133.617 236.033 133.395 232.392 135.995 232.392C135.995 232.392 138.447 238.559 141.197 240.789L141.42 240.937C143.5 242.423 147.216 242.795 148.702 244.876C149.029 245.332 149.246 245.858 149.337 246.412C149.427 246.967 149.388 247.534 149.222 248.071Z" fill="#0C476B"/>
<path d="M99.5843 160.536L99.3613 161.056L98.7669 160.907C87.6949 157.861 80.1155 161.427 78.0349 162.616V162.245C78.0349 162.171 78.0349 162.171 77.9606 162.096C79.655 161.136 81.4833 160.435 83.3851 160.016C82.89 154.7 82.9149 149.35 83.4594 144.039C84.3511 135.494 92.7479 130.292 92.8222 130.292L93.1195 130.738C93.0451 130.812 87.1748 134.454 84.7969 140.621C92.5993 140.547 95.6459 130.812 95.7202 130.738L96.2404 130.887C96.1661 131.035 92.9708 141.216 84.7226 141.216H84.6483C84.2699 142.139 84.0441 143.118 83.9795 144.114C83.4075 149.349 83.4075 154.631 83.9795 159.867C88.9174 158.767 94.052 158.92 98.9155 160.313L99.5843 160.536Z" fill="#CE364C"/>
<path d="M105.232 134.974C105.232 135.048 104.489 142.627 100.996 148.424L101.442 148.721C105.009 142.85 105.752 135.122 105.826 135.048L105.232 134.974Z" fill="#CE364C"/>
<path d="M129.233 131.556C129.233 131.556 127.896 137.723 126.558 138.169C125.221 138.615 126.335 134.974 126.335 134.974C126.335 134.974 116.675 131.11 112.737 130.812C108.798 130.515 114.372 123.01 129.233 131.556Z" fill="#0C476B"/>
<path d="M127.524 132.67C127.524 132.67 117.418 128.063 110.359 128.435C103.3 128.806 120.093 105.399 124.329 107.777C128.564 110.155 129.382 129.698 127.524 132.67Z" fill="#0C476B"/>
<path d="M102.334 87.788C102.334 87.788 103.374 85.1872 108.353 84.7414C113.331 84.2955 117.864 89.4971 116.898 92.6181C115.932 95.739 102.334 87.788 102.334 87.788Z" fill="#0C476B"/>
<path d="M110.359 65.6442C110.359 65.6442 109.987 59.1051 103.894 58.0647C97.8009 57.0244 92.9708 58.5849 95.1258 67.279C97.2807 75.973 95.8689 79.4655 91.8562 79.9114C87.8436 80.3572 88.1408 75.6015 88.1408 75.6015C87.9365 76.8447 88.1838 78.1199 88.838 79.1966C89.4922 80.2733 90.5101 81.0804 91.7076 81.4718C91.7076 81.4718 87.1005 81.8434 88.7353 84.7414C90.37 87.6394 95.4973 87.1936 97.5036 84.7414C97.5036 84.7414 97.6523 86.6734 100.179 86.0046C99.8523 85.8877 99.577 85.6602 99.4006 85.3616C99.2242 85.0631 99.1577 84.7122 99.2127 84.3699C99.287 83.1066 106.198 85.2616 108.353 77.162C110.508 69.0624 106.198 67.6505 106.198 67.6505L110.359 65.6442Z" fill="#0E3944"/>
<path d="M121.951 91.4291C118.236 91.2805 118.087 94.9216 119.945 98.4884C121.802 102.055 139.934 118.329 142.683 115.282C143.798 114.093 140.677 108.669 140.677 108.669C136.502 104.895 132.557 100.875 128.862 96.6307C125.815 93.1382 123.809 91.5034 121.951 91.4291Z" fill="#FF8B66"/>
<path d="M145.135 109.412C146.176 104.136 144.689 90.0173 142.46 83.8497L139.339 84.5928C139.339 84.5928 139.562 100.198 138.076 105.176C136.59 110.155 137.556 113.87 140.825 115.356C144.095 116.843 144.912 110.526 145.135 109.412Z" fill="#FF8B66"/>
<path d="M135.772 80.4315C139.116 82.7351 137.927 85.9303 141.345 86.5991C141.908 86.7068 142.491 86.6009 142.98 86.3019C143.364 86.0156 143.659 85.6261 143.83 85.1788C144.001 84.7315 144.041 84.2448 143.946 83.7754C143.701 81.6037 143.677 79.4129 143.872 77.2363C144.095 75.5272 143.426 76.0473 143.426 76.0473C143.426 76.0473 143.5 75.7501 143.5 75.6015C143.5 75.4529 144.169 73.7438 143.352 74.041C142.534 74.3382 141.494 77.5335 141.494 77.5335C141.717 72.7778 142.832 72.3319 142.014 72.5548C141.197 72.7778 140.008 76.939 139.934 77.0876C139.636 74.2639 140.157 72.7778 139.413 73.2236C138.67 73.6695 138.67 78.7967 138.67 80.6544V81.3975C135.995 79.3912 135.772 80.4315 135.772 80.4315Z" fill="#FF8B66"/>
<path d="M138.67 80.6544V81.3975C139.139 81.4763 139.575 81.6853 139.93 82.0007C140.285 82.3162 140.544 82.7252 140.677 83.1809C140.704 82.5884 140.516 82.0058 140.148 81.5413C139.779 81.0767 139.254 80.7617 138.67 80.6544Z" fill="#EF6E4B"/>
<path d="M142.534 79.3169C142.609 78.871 142.906 76.6418 143.426 76.0473C143.946 75.4529 143.5 75.7501 143.5 75.6015C143.5 75.4529 142.534 78.7967 142.534 79.3169Z" fill="#EF6E4B"/>
<path d="M116.527 91.2062C116.527 91.2062 121.505 89.1256 127.673 92.7667C131.538 95.233 134.852 98.4711 137.407 102.278C137.407 102.278 137.481 91.3548 139.339 89.5714C139.339 89.5714 141.643 92.2465 144.466 92.7667C144.466 92.7667 151.823 107.926 147.142 117.288C142.46 126.651 128.787 117.288 128.787 117.288L116.527 91.2062Z" fill="#0C476B"/>
<path d="M91.1131 125.685C91.1131 125.685 94.7542 116.025 92.8965 110.526C89.7013 101.164 91.4104 93.2125 94.8285 90.8347C100.253 87.0449 111.697 91.3548 111.697 91.3548C111.697 91.3548 122.768 90.1659 123.883 93.5841C124.998 97.0022 127.673 110.601 122.397 117.883C117.121 125.165 109.764 136.46 109.764 136.46C109.764 136.46 94.0855 134.974 91.1131 125.685Z" fill="#CFD8DC"/>
<path d="M97.5036 131.556C97.5036 131.556 95.9432 136.757 94.0112 136.46C92.0791 136.163 83.608 131.556 83.608 130.812C83.608 130.069 84.7969 128.435 84.7969 128.435C84.7969 128.435 84.3511 124.422 85.3914 124.05C86.4317 123.679 97.5036 131.556 97.5036 131.556Z" fill="#0C476B"/>
<path d="M115.338 89.5714C115.338 89.5714 126.93 109.635 126.335 134.974C126.335 134.974 131.611 133.636 132.577 124.125C133.543 114.613 130.199 96.4821 125.592 91.7264C125.592 91.7264 122.248 88.3082 115.338 89.5714Z" fill="#105E99"/>
<path d="M105.529 88.6797C105.529 88.6797 114.149 119.592 97.5036 131.556C92.9194 131.097 88.6501 129.015 85.4657 125.685C80.487 120.261 87.2491 90.8347 87.2491 90.8347C87.2491 90.8347 96.1661 84.9643 105.529 88.6797Z" fill="#105E99"/>
<path d="M107.312 98.3398C107.312 98.3398 107.238 89.0513 106.198 86.6734C105.157 84.2955 102.334 87.788 102.334 87.788C102.334 87.788 103.151 92.0979 107.312 98.3398Z" fill="#0C476B"/>
<path d="M119.053 97.4481C119.053 97.4481 120.093 88.3082 116.972 86.7477C113.851 85.1872 113.777 90.8347 113.777 90.8347C113.777 90.8347 116.527 90.5374 119.053 97.4481Z" fill="#0C476B"/>
<path d="M109.987 78.7224C109.987 78.7224 110.731 85.0386 108.353 90.7604C108.353 90.7604 111.697 95.739 114.892 92.4694C115.326 88.1374 116.641 83.9398 118.756 80.1343C121.134 75.7501 109.987 78.7224 109.987 78.7224Z" fill="#EF6E4B"/>
<path d="M104.86 78.9454C104.86 78.9454 102.036 77.162 102.408 79.9114C102.78 82.6608 105.826 83.7011 106.198 82.5865C106.569 81.4718 104.86 78.9454 104.86 78.9454Z" fill="#FF8B66"/>
<path d="M120.985 75.5272C120.985 75.5272 122.768 72.7035 123.66 75.3042C124.552 77.905 122.174 80.2086 121.357 79.3912C120.539 78.5738 120.985 75.5272 120.985 75.5272Z" fill="#FF8B66"/>
<path d="M115.189 88.4568C110.062 89.5714 106.495 86.8963 104.266 76.939C103.077 71.7375 105.009 68.022 110.731 66.7588C116.452 65.4956 119.499 68.0964 120.688 73.2236C123.066 83.9983 120.465 87.2679 115.189 88.4568Z" fill="#FF8B66"/>
<path d="M119.796 77.162C119.841 77.2985 119.858 77.4428 119.844 77.586C119.831 77.7291 119.788 77.8679 119.718 77.9936C119.648 78.1193 119.553 78.2291 119.438 78.3162C119.324 78.4033 119.193 78.4657 119.053 78.4995C118.805 78.6392 118.512 78.6786 118.236 78.6095C117.96 78.5404 117.72 78.3681 117.567 78.1279C117.494 77.8424 117.529 77.5398 117.666 77.2789C117.804 77.018 118.033 76.8174 118.31 76.7161C118.57 76.6001 118.863 76.5814 119.136 76.6632C119.408 76.745 119.643 76.922 119.796 77.162Z" fill="#DB614D"/>
<path d="M109.393 79.837C109.394 80.1202 109.286 80.393 109.093 80.6C108.9 80.8071 108.635 80.9328 108.353 80.9517C107.684 81.026 107.089 80.7287 107.015 80.2086C106.941 79.6884 107.387 79.1683 108.055 79.0196C108.34 78.9705 108.632 79.0263 108.878 79.1767C109.124 79.3271 109.307 79.5617 109.393 79.837Z" fill="#DB614D"/>
<path d="M116.229 72.5548H116.081C115.449 72.1989 114.706 72.0928 114 72.2576C113.931 72.2835 113.854 72.2827 113.786 72.2552C113.717 72.2277 113.661 72.1756 113.629 72.109C113.629 71.9604 113.703 71.8118 113.851 71.8118C114.271 71.69 114.711 71.6535 115.145 71.7046C115.579 71.7556 115.998 71.8932 116.378 72.109C116.527 72.1833 116.527 72.3319 116.452 72.4805L116.229 72.5548Z" fill="#0E3944"/>
<path d="M106.644 74.7098H106.495C106.346 74.6355 106.346 74.4869 106.421 74.3382C106.952 73.6304 107.714 73.1309 108.576 72.9264C108.724 72.9264 108.873 73.0007 108.873 73.1493C108.873 73.2979 108.798 73.4465 108.65 73.4465C107.934 73.6199 107.302 74.0411 106.866 74.6355L106.644 74.7098Z" fill="#0E3944"/>
<path d="M116.452 75.3043C116.601 75.973 116.452 76.5675 116.081 76.6418C115.709 76.7161 115.338 76.2703 115.189 75.6015C115.04 74.9327 115.189 74.4125 115.561 74.3382C115.932 74.2639 116.304 74.7098 116.452 75.3043Z" fill="#1A4850"/>
<path d="M109.393 76.939C109.542 77.5335 109.319 78.1279 109.021 78.2023C108.724 78.2766 108.278 77.8307 108.13 77.1619C107.981 76.4932 108.13 75.973 108.501 75.8987C108.873 75.8244 109.244 76.2702 109.393 76.939Z" fill="#1A4850"/>
<path d="M111.845 82.6608C113.58 82.6613 115.28 82.1719 116.749 81.2489C116.749 81.2489 117.344 85.0386 114.743 85.3359C112.142 85.6331 111.845 82.6608 111.845 82.6608Z" fill="#1A4850"/>
<path d="M114.669 75.3786C114.669 75.3786 114.817 73.7438 115.412 73.6695C116.006 73.5952 116.824 74.9327 116.824 74.9327L117.641 74.2639L116.749 74.5612C116.749 74.5612 115.932 73.2979 115.338 73.3722C114.743 73.4465 114.669 75.3786 114.669 75.3786Z" fill="#1A4850"/>
<path d="M109.765 76.7161C109.765 76.7161 108.947 75.23 108.353 75.4529C107.758 75.6758 107.61 77.162 107.61 77.162L106.569 76.8647H107.535C107.535 76.8647 107.684 75.3786 108.278 75.2299C108.873 75.0813 109.765 76.7161 109.765 76.7161Z" fill="#1A4850"/>
<path d="M113.331 79.9114L113.034 79.3912C113.48 79.1683 113.554 78.871 113.48 78.6481C113.464 78.5156 113.404 78.3923 113.31 78.2979C113.216 78.2036 113.092 78.1437 112.96 78.1279L112.737 78.3509L112.217 78.2023C112.44 77.5335 112.885 77.5335 113.034 77.5335C113.294 77.5856 113.531 77.7181 113.711 77.9123C113.891 78.1064 114.006 78.3524 114.039 78.6154C114.072 78.8783 114.021 79.145 113.894 79.3775C113.767 79.6101 113.57 79.7969 113.331 79.9114Z" fill="#DB614D"/>
<path d="M105.306 80.7287C104.858 79.0241 104.56 77.2836 104.414 75.5272C104.261 73.752 104.713 71.9772 105.699 70.4926C106.684 69.008 108.143 67.9013 109.839 67.3533C111.164 66.9639 112.548 66.8129 113.926 66.9074C115.051 67.0225 116.125 67.4339 117.038 68.0997C117.952 68.7655 118.673 69.6618 119.127 70.6971C120.141 72.8855 120.914 75.1778 121.431 77.5335C121.997 75.0665 122.022 72.5061 121.505 70.0284C120.614 65.4212 116.898 61.6315 108.204 63.4892C100.699 65.124 97.5036 74.1153 105.306 80.7287Z" fill="#1A4850"/>
<path d="M116.155 65.7928C116.155 65.7928 115.189 72.9264 105.529 73.8181C105.529 73.8181 111.399 71.7374 111.399 67.5762C111.399 67.5762 109.096 72.8521 103.523 72.2576C103.523 72.2576 103.002 63.7865 116.155 65.7928Z" fill="#1A4850"/>
<path d="M86.7289 93.1382C91.4847 94.4758 94.6056 102.13 93.6396 103.021C92.6736 103.913 70.4554 108.148 70.4554 108.148L83.9795 127.617L81.676 130.961C81.676 130.961 60.5724 112.31 60.7211 105.919C60.8697 99.5287 86.7289 93.1382 86.7289 93.1382Z" fill="#FF8B66"/>
<path d="M84.0538 127.097C85.651 127.261 87.2384 127.509 88.8096 127.84C90.6673 128.286 93.1194 128.806 93.1938 129.178C93.2681 129.549 89.1068 129.178 89.1068 129.178C89.1068 129.178 92.525 130.59 92.5993 131.11C92.6736 131.63 88.2894 130.738 88.2894 130.738C88.2894 130.738 91.0388 132.373 90.8902 132.893C90.7416 133.413 87.3234 132.15 87.3234 132.15C87.6596 132.985 88.083 133.782 88.5866 134.528C88.5866 134.528 87.9922 134.899 86.5803 133.413C85.1685 131.927 83.1621 132.447 81.4531 131.11C79.744 129.772 82.4934 126.874 84.0538 127.097Z" fill="#FF8B66"/>
<path d="M87.2491 90.8347C87.2491 90.8347 95.4973 91.8007 95.8688 103.987C96.2404 116.174 77.8119 112.235 77.8119 112.235C77.8119 112.235 82.2704 117.437 80.9329 123.233C80.9329 123.233 75.8799 123.159 76.0285 125.685C76.0285 125.685 68.3005 126.205 60.721 115.654C53.1416 105.102 63.7677 93.4354 87.2491 90.8347Z" fill="#0C476B"/>
<path d="M129.159 102.501C129.679 104.284 129.233 105.994 128.193 106.365C127.153 106.737 125.815 105.473 125.295 103.69C124.775 101.907 125.146 100.198 126.187 99.826C127.227 99.4544 128.564 100.718 129.159 102.501Z" fill="#0C476B"/>
<path d="M105.474 104.844C105.567 102.795 104.28 101.071 102.599 100.995C100.918 100.918 99.4802 102.518 99.3871 104.568C99.2941 106.618 100.581 108.341 102.262 108.418C103.943 108.494 105.381 106.894 105.474 104.844Z" fill="#0C476B"/>
<path d="M77.7376 99.6773C75.8056 100.123 73.8736 99.1572 73.5021 97.5224C73.1305 95.8876 74.3938 94.1042 76.4001 93.6584C78.4064 93.2125 80.3384 94.2528 80.71 95.8876C81.0815 97.5224 79.744 99.2315 77.7376 99.6773Z" fill="#105E99"/>
<path d="M87.472 244.207C87.472 244.207 90.2957 240.491 96.1661 243.464C96.1661 243.464 96.389 246.065 93.6396 245.544C90.8902 245.024 89.3297 247.031 87.472 244.207Z" fill="#105E99"/>
<path d="M148.702 244.876C144.987 246.659 137.259 242.423 137.259 242.423C138.447 242.646 140.305 241.606 141.42 240.937C143.5 242.423 147.216 242.795 148.702 244.876Z" fill="#105E99"/>
</g>
<defs>
<clipPath id="clip0_1_163">
<rect width="320.64" height="248.933" fill="white" transform="translate(0.680023 0.847412)"/>
</clipPath>
</defs>
</svg>
